
<svg width="770px" height="1284px" viewBox="0 0 770 1284" version="1.1" xmlns="http://www.w3.org/2000/svg" xmlns:xlink="http://www.w3.org/1999/xlink">
    <g id="Page-1" stroke="none" stroke-width="1" fill="none" fill-rule="evenodd">
        <g id="Group" transform="translate(0.244710, 0.204530)" fill="#FF8F5F">
            <path d="M69.8859512,958.362413 C58.9206182,939.935747 49.1979517,909.189081 47.7272851,888.269082 C46.7099518,872.335749 48.8592851,874.029082 50.5539517,890.535748 C52.023285,905.002415 57.2246182,925.122414 63.1032847,938.695747 C66.9472846,947.62908 67.3992846,947.50908 64.9112847,938.015747 C58.9206182,915.069081 58.0152848,874.589082 62.6499514,837.962416 C64.232618,825.642417 65.4779513,809.589084 65.4779513,802.469084 C65.4779513,789.469084 68.0766179,763.469085 72.3726178,732.375752 C77.6872844,694.16242 98.7139505,624.295755 117.819283,581.455756 C124.94195,565.50909 138.16995,548.775757 154.448616,535.095757 C173.101949,519.495758 188.364615,509.882425 203.399281,504.242425 C206.791281,502.989091 216.287281,499.375758 224.313947,496.322425 C235.053947,492.135758 242.289947,490.109092 251.333947,488.749092 C258.229947,487.842425 263.881946,486.935758 263.99528,486.709092 C264.108613,486.602425 264.560613,481.402425 264.89928,475.295759 L265.69128,464.109092 L259.133946,464.895759 C255.629947,465.349092 247.489947,467.495759 241.272614,469.642426 C224.088614,475.629092 221.713947,476.429092 211.312614,479.135759 C184.520615,486.042425 178.301949,488.975758 159.421949,502.989091 C149.473949,510.455758 145.177949,512.375758 149.700616,507.402425 C152.527282,504.242425 174.005949,488.749092 179.319282,486.149092 C183.728615,483.882425 195.712615,480.162425 212.444614,475.749092 C217.756614,474.389092 224.653947,472.242425 227.705947,471.002425 C239.801947,465.909092 252.80328,461.949092 259.020613,461.389092 L265.464613,460.709092 L265.804613,452.349093 L266.14328,443.869093 L261.056613,444.549093 C258.229947,444.882426 249.41128,445.789093 241.272614,446.349093 C225.671281,447.709093 206.904614,451.549093 193.789948,456.309093 C175.476615,462.749092 152.300616,476.309092 133.759283,491.229092 C117.819283,504.015758 111.828617,511.695758 93.7392839,543.015757 C70.5646179,583.149089 52.7019516,622.149088 45.9192851,647.589088 C32.5792855,697.32242 27.2659523,752.162418 29.3006189,820.549083 C30.3179522,855.255749 31.7872855,868.042416 36.6486187,888.949082 C46.8232851,931.682414 55.5286182,951.695747 69.3206179,963.10908 C72.3726178,965.482413 74.9739511,967.522413 75.0872844,967.522413 C75.3126177,967.522413 72.9379511,963.455747 69.8859512,958.362413 L69.8859512,958.362413 Z M100.975284,968.202413 C113.863283,951.015747 118.04595,927.162414 119.176617,863.509082 C120.420617,789.695751 121.663283,760.642418 124.14995,749.669085 C125.39395,743.909085 127.203283,734.295752 128.220616,728.189086 C131.83795,706.709086 138.056616,681.84242 145.404616,660.242421 C152.187282,640.122421 153.996616,636.282421 155.465949,637.749088 C155.805949,638.095755 152.752616,648.149088 148.683283,660.135754 C144.612616,672.229087 140.429949,685.909087 139.525949,690.549087 C132.176616,725.029086 128.33395,748.535752 126.63795,771.375751 C124.828617,794.442417 123.020617,847.909083 123.020617,877.642415 C123.020617,910.202414 120.759283,932.589081 115.784617,949.42908 C114.20195,955.082413 108.888617,965.82908 106.40195,968.98908 C103.46195,972.38908 105.836617,972.495746 112.39395,969.10908 C119.855283,965.375746 133.53395,951.46908 138.056616,943.215747 C142.239283,935.415747 149.587283,913.375748 152.413949,900.709081 C159.196616,868.935749 162.361949,843.615749 163.265949,811.509084 C163.605949,798.735751 164.736616,772.055751 165.640615,752.162418 C166.997949,720.962419 167.675282,713.602419 170.615282,698.909086 C180.111282,650.975754 200.120615,616.162422 225.332614,604.055755 C233.81128,599.989089 248.845947,595.575756 254.272613,595.575756 L257.325947,595.575756 L258.45528,578.962423 C259.020613,569.695756 259.473946,562.122423 259.360613,562.002423 C259.24728,561.775757 254.612613,562.22909 249.072613,562.90909 C235.280614,564.602423 221.488614,570.02909 210.408614,578.282423 C201.929948,584.615756 178.980615,606.429089 174.119282,612.989089 C172.763282,614.802422 171.405949,615.935755 171.067282,615.589089 C169.371282,614.015755 173.667282,607.455755 183.503282,596.482422 C195.599281,582.922423 208.035281,573.98909 228.836614,563.922423 C239.01128,558.94909 244.55128,557.02909 250.881947,556.015757 C255.516613,555.335757 259.58728,554.54909 259.812613,554.202423 C260.716613,553.295757 261.960613,537.015757 262.073946,525.829091 C262.18728,518.709091 261.84728,516.442424 260.716613,516.442424 C256.533947,516.442424 227.365947,528.429091 213.573948,535.895757 C199.104615,543.575757 184.293948,555.22909 170.049949,569.802423 C155.013949,585.069089 150.491283,591.855756 142.125949,610.735755 C136.699283,623.055755 134.43795,626.895755 134.43795,623.962422 C134.43795,620.789088 146.533949,594.682422 151.508616,587.215756 C157.952616,577.375756 182.372615,553.18909 195.259281,543.695757 C207.583281,534.762424 240.141947,519.162424 257.325947,514.189091 C262.525946,512.602424 263.316613,510.789091 263.316613,499.709091 L263.316613,493.495758 L258.568613,494.282425 C255.85528,494.735758 250.089947,495.535758 245.680613,496.095758 C241.272614,496.655758 234.149947,498.469091 229.853947,500.162425 C225.557947,501.749091 219.000614,504.122425 215.269948,505.362425 C192.885948,512.829091 176.153949,523.229091 154.787282,543.015757 C133.308616,562.90909 122.455283,580.882423 109.00195,619.322422 C106.288617,627.122422 101.76595,639.789088 98.9406172,647.469088 C93.8526173,661.722421 92.9486173,664.989087 84.8086175,701.28242 C76.4432844,738.362419 71.5819512,773.415751 70.6766179,802.469084 C70.3379512,813.322417 69.2072846,835.482416 68.1899513,851.642416 C67.1726179,869.615749 66.6072846,889.855748 66.9472846,903.642415 C67.3992846,924.442414 67.6246179,927.269081 70.9032845,939.602414 C78.1392843,967.06908 92.0446173,980.295746 100.975284,968.202413 L100.975284,968.202413 Z M672.903269,1089.61574 C674.485936,1088.37574 677.085936,1085.09574 678.668603,1082.37574 C684.207269,1072.88241 690.877936,1037.72241 692.912602,1007.65575 C693.591269,997.135746 695.060602,977.469079 696.304602,964.135746 C700.487269,916.429081 699.921935,833.549083 695.060602,801.335751 C692.460602,783.589084 691.783269,780.415751 687.260602,764.362418 C683.416603,750.575752 683.529936,751.589085 684.885936,751.589085 C686.129936,751.589085 696.644602,783.135751 698.565935,792.295751 C700.487269,801.895751 703.992602,843.842416 704.783269,866.909082 C705.575269,889.069082 703.992602,941.62908 702.069935,959.602413 C700.260602,976.455746 697.548602,1007.65575 696.869936,1020.09575 C695.512602,1043.04241 689.068602,1076.73574 684.773936,1083.85574 L682.172603,1087.92241 L686.695269,1084.30908 C689.181936,1082.37574 694.156602,1077.74908 697.660602,1074.13574 C705.461935,1066.32241 707.383269,1061.34908 711.679269,1038.62908 C713.261935,1030.04241 715.071268,1022.92241 715.749935,1022.92241 C716.313935,1022.92241 716.540602,1024.61574 716.200602,1026.64241 C712.809935,1047.10908 710.661935,1057.73574 708.740602,1062.82908 C706.365935,1069.04241 697.435269,1079.44241 689.068602,1085.65574 C683.077936,1090.18908 685.677936,1090.52241 694.269936,1086.33574 C706.365935,1080.45574 713.827268,1073.78908 717.783268,1065.08241 C722.193935,1055.36241 725.359268,1039.86908 726.941935,1019.52241 C728.863268,995.215746 728.976601,828.242417 727.055268,806.429084 C725.359268,786.522418 722.419268,768.549085 718.349935,754.415752 C711.113935,728.642419 689.408602,696.76242 654.47527,660.695754 C627.229937,632.549088 595.009938,612.882422 547.415273,595.242422 C538.25794,591.735756 526.839273,588.122423 522.204607,587.109089 C517.56994,585.975756 513.048607,584.842423 512.36994,584.615756 C511.352607,584.162423 510.899274,585.629089 510.899274,589.482423 L510.899274,595.015756 L536.223273,603.269089 C559.737939,610.962422 563.016606,612.429089 581.783272,622.935755 C605.637938,636.389088 622.255271,647.469088 620.672604,649.055754 C619.995271,649.735754 617.168604,648.149088 612.985938,644.989088 C606.993938,640.349088 587.548605,628.815755 566.295272,617.402422 C561.660606,614.802422 551.597939,610.962422 544.024606,608.695755 C536.44994,606.429089 526.388606,603.162422 521.640607,601.229089 C517.004607,599.429089 512.708607,597.842422 512.256607,597.842422 C511.804607,597.842422 511.691274,602.589089 512.031273,608.242422 L512.595273,618.762422 L534.640606,626.109088 C573.869939,639.335755 602.471271,654.149088 621.012604,670.869087 C634.352604,682.855754 656.28327,704.68242 658.77127,708.40242 C662.049936,713.495753 658.77127,712.362419 652.440603,706.255753 C648.936603,702.749086 643.169937,697.775753 639.77927,694.949087 C636.38727,692.24242 627.343271,684.549087 619.881937,677.88242 C612.307271,671.215754 602.245938,663.415754 597.384605,660.589087 C581.669938,651.202421 548.997939,635.602421 538.032606,631.989088 C527.179273,628.482422 515.083273,624.975755 513.839273,624.975755 C513.500607,624.975755 513.160607,629.042422 513.160607,634.015755 L513.160607,643.069088 L520.848607,646.789088 C525.031273,648.935754 530.344606,651.322421 532.60594,651.989088 C534.979273,652.789088 540.180606,655.615754 544.137939,658.322421 C553.972606,665.109087 567.312605,672.80242 586.079272,682.629087 C594.783271,687.149087 604.732605,692.80242 608.124604,695.175753 C617.168604,701.28242 638.648604,724.122419 638.648604,727.402419 C638.648604,730.335752 636.952604,728.869086 629.604604,719.709086 C622.595271,711.002419 612.759271,701.629086 605.184604,696.429087 C603.149938,695.069087 591.505938,688.509087 579.183272,681.949087 C566.747272,675.28242 551.937939,666.922421 546.284606,663.189087 C540.519273,659.455754 533.171273,655.389088 530.00594,654.255754 C526.839273,653.015754 522.204607,650.975754 519.831273,649.842421 C517.456607,648.602421 515.196607,647.589088 514.856607,647.589088 C514.064607,647.589088 514.17794,655.495754 514.96994,666.015754 C515.647273,673.589087 516.100607,674.72242 517.908607,674.72242 C520.848607,674.72242 558.720606,694.269087 578.731272,706.149086 C600.323271,719.029086 614.680604,732.602419 628.812604,753.629085 C641.13527,771.935751 646.448603,783.362418 651.53527,802.695751 C661.597936,840.682416 664.42327,881.935749 660.240603,931.349081 C658.884603,947.175747 655.71927,972.495746 654.361937,978.829079 C653.344603,983.122413 651.648603,1054.57574 652.213937,1070.73574 C652.440603,1078.08241 653.796603,1081.48241 658.657936,1086.45574 C663.97127,1091.98908 665.328603,1090.62908 666.91127,1077.62908 C667.588603,1072.09574 669.172603,1061.69574 670.528603,1054.57574 C671.997936,1045.97574 672.563269,1039.64241 671.997936,1035.69574 C670.528603,1024.16241 671.320603,998.615746 673.693936,981.082413 C674.937936,971.482413 675.955269,958.482413 675.955269,952.14908 C675.955269,939.482414 677.085936,926.829081 678.103269,926.829081 C679.572603,926.829081 678.103269,963.335747 675.841936,983.349079 C673.807269,1000.76241 673.581936,1007.76241 674.259269,1024.72241 C674.824603,1041.00241 674.597936,1047.00241 673.241936,1054.68241 C671.65927,1062.93574 668.041936,1088.37574 668.041936,1090.97574 C668.041936,1092.44241 669.849936,1091.98908 672.903269,1089.61574 L672.903269,1089.61574 Z M648.82327,1084.98908 C639.665937,1077.17574 637.74327,1073.90908 632.99527,1057.85574 C630.056604,1047.78908 625.081937,1021.56241 625.081937,1016.13575 C625.195271,1011.38908 627.343271,1018.96241 629.377937,1031.38908 C632.09127,1046.88241 638.873937,1070.50908 642.03927,1074.80241 C643.169937,1076.38908 645.317937,1078.88241 646.78727,1080.34908 L649.613937,1082.82908 L648.709937,1076.38908 C647.013937,1064.62908 649.72727,973.282413 652.32727,954.522413 C660.12727,897.095748 658.544603,853.562416 647.013937,808.802417 C641.813937,788.215751 639.77927,782.455751 633.78727,771.935751 C620.560604,748.655752 600.663271,725.255752 587.888605,718.015753 C585.061938,716.322419 577.825939,712.135753 571.948605,708.629086 C566.068605,705.135753 551.597939,697.215753 539.727273,691.109087 C527.971273,685.00242 517.56994,679.575754 516.892607,678.895754 C515.083273,677.549087 514.96994,679.695754 516.779273,699.48242 L518.135273,714.855753 L527.06594,719.375753 C548.997939,730.335752 554.424606,734.189086 567.425939,747.975752 C581.331272,762.789085 587.435272,772.842418 593.313938,790.815751 C600.209938,812.29575 601.227271,823.602417 602.471271,899.122415 C603.488605,963.002413 605.524604,1001.32241 608.803271,1019.41575 C611.289938,1032.97574 619.881937,1058.64241 624.856604,1067.00241 C627.116604,1070.96241 631.073937,1076.16241 633.560604,1078.76241 C637.856604,1083.17574 652.213937,1091.76241 655.37927,1091.88241 C656.17127,1091.88241 653.23127,1088.82908 648.82327,1084.98908 L648.82327,1084.98908 Z M417.292609,1244.04241 C422.945942,1236.46907 428.484609,1228.33574 429.841942,1225.84241 C432.555275,1220.53574 441.372609,1192.82907 447.252608,1171.01574 C451.208608,1156.20241 451.321942,1155.06908 451.435275,1135.40241 C451.548608,1124.21574 451.095275,1103.06908 450.531275,1088.48241 C449.399275,1058.86908 450.643275,992.389079 452.339275,992.389079 C452.904608,992.389079 453.017942,1009.80241 452.564608,1037.38908 C452.113942,1067.34908 452.225942,1088.93574 453.131275,1102.16241 C455.843275,1143.76241 454.487275,1158.69574 444.991275,1188.53574 C442.843275,1195.42907 439.339275,1206.28241 437.303275,1212.84241 C434.364609,1222.22907 432.103275,1226.97574 425.997942,1236.01574 C414.919276,1252.41574 408.588609,1259.98907 403.839276,1262.58907 C400.90061,1264.16241 400.44861,1264.73574 402.369943,1264.16241 C419.441942,1259.76241 451.773942,1226.62907 460.365941,1204.81574 C464.661941,1193.85574 466.696608,1189.89574 466.809941,1192.49574 C466.809941,1196.45574 460.591275,1212.28241 456.861942,1217.93574 C447.477942,1231.72241 431.311276,1248.68241 416.501943,1260.09574 L413.111276,1262.69574 L416.501943,1262.01574 C423.284609,1260.54907 438.207275,1253.20241 447.025942,1246.98907 C469.409941,1231.04241 476.871274,1218.49574 483.767274,1185.14907 C491.003274,1150.09574 493.941941,1122.85574 493.941941,1091.20241 C493.941941,1072.09574 498.57794,1016.36241 501.743274,996.349079 C502.42194,992.615746 503.212607,984.482413 503.551274,978.255746 C503.891274,972.042413 505.02194,960.62908 505.92594,952.82908 C507.283274,941.74908 507.62194,922.069081 507.847274,864.082416 C508.07394,794.669084 507.16994,751.362418 504.116607,691.68242 C503.551274,679.575754 502.53394,657.989087 501.855274,643.629088 C501.17794,629.389088 499.707274,606.429089 498.464607,592.762422 C494.393941,545.722424 492.133941,484.909092 491.116607,394.349094 C490.776607,363.602428 489.645941,308.095763 488.741941,271.12243 C487.724607,234.162431 487.159274,197.975766 487.497941,190.855766 C488.063274,178.642433 487.837941,173.1091 484.784608,138.282434 C484.220608,130.829101 483.428608,115.562434 483.201941,104.375768 C482.749941,85.1491018 480.149941,55.3091025 478.680608,52.9357693 C478.340608,52.3757693 477.209941,52.2557693 476.305941,52.6024359 C474.271274,53.3891026 474.497941,60.2824357 477.776608,85.1491018 C478.680608,92.6157683 479.132608,101.322435 478.793941,104.482435 C478.453941,107.655768 478.680608,116.815768 479.245941,124.829101 C479.923274,132.869101 480.376608,153.215767 480.376608,169.9491 C480.149941,257.335764 481.167274,363.482428 482.524608,391.522427 C484.559274,432.669093 485.236607,475.295759 483.993941,474.055759 C482.863274,472.922425 481.959274,459.349092 479.019274,400.002427 C478.227274,383.269094 477.549941,328.095762 477.436608,260.949097 C477.209941,138.962434 476.532608,101.322435 474.044608,83.6824352 C473.140608,77.349102 472.461941,67.8557689 472.461941,62.775769 L472.461941,53.3891026 L464.888608,52.2557693 C460.591275,51.5757693 457.087275,51.0157693 457.087275,51.122436 C456.973942,51.242436 457.652608,57.1224358 458.557941,64.2424356 C459.687275,73.6291021 460.252608,93.2957683 460.591275,134.895767 C460.817941,178.869099 461.269941,195.602432 462.627275,205.549099 C464.888608,222.402432 466.131275,242.855765 464.775275,240.602431 C464.209941,239.695765 463.079275,231.775765 462.287275,223.082432 C461.609941,214.375765 460.252608,202.949099 459.348608,197.642432 C458.217942,190.402432 457.879275,174.575766 457.879275,135.469101 C457.879275,95.8957682 457.425942,79.2691019 456.069942,68.2024355 C455.165942,60.1757691 454.373942,52.6024359 454.373942,51.5757693 C454.373942,49.202436 439.789942,44.4557695 435.720609,45.4691028 C433.233942,46.1491028 433.007275,46.8291027 432.668609,56.0957692 C432.216609,69.2157689 433.459275,123.029101 435.041942,160.562433 C436.737942,199.335766 434.137942,270.669097 429.276609,321.322429 C427.128609,343.709095 426.903276,350.375762 427.580609,390.389094 C428.259276,429.402427 428.145942,435.842426 426.337942,444.775759 C424.076609,457.095759 423.849942,487.509092 425.885942,515.882424 C426.563276,526.509091 427.807276,544.02909 428.372609,554.882423 C430.745942,593.549089 432.893942,618.989088 435.720609,638.535755 C439.903275,667.935754 441.147275,689.975753 440.468609,718.802419 C439.903275,742.429085 439.564609,745.935752 435.268609,767.989085 C430.633942,792.069084 428.259276,809.81575 426.111276,835.25575 C425.432609,843.389083 424.755276,902.629081 424.415276,975.42908 C423.963276,1093.80241 423.059276,1133.25574 420.459276,1169.88241 C418.423276,1197.34907 414.919276,1222.78907 411.865943,1233.18907 C409.719276,1240.53574 403.613943,1252.97574 399.883276,1257.61574 C394.229943,1264.61574 394.229943,1264.73574 400.673943,1261.22907 C406.213943,1258.29574 408.700609,1255.69574 417.292609,1244.04241 L417.292609,1244.04241 Z M364.384611,1261.90907 C359.749944,1259.64241 357.715277,1257.61574 352.967277,1250.37574 C349.801944,1245.50907 345.731278,1238.50907 343.809944,1234.66907 C339.173944,1225.73574 331.939278,1204.36241 329.677945,1193.62907 C324.929945,1170.78907 320.633945,1110.08241 321.764612,1081.36241 C322.329945,1067.34908 321.991278,1060.56241 319.843278,1044.40241 C316.451278,1018.05575 317.016612,1007.53575 324.252612,964.695746 C331.600611,921.175748 333.861945,897.202415 333.861945,858.429082 C333.973945,826.77575 334.087278,828.01575 327.077945,778.722418 C324.816612,762.562418 324.477945,723.109086 326.399278,694.495753 C327.191278,683.309087 328.321945,636.735755 328.887278,591.055756 C330.243278,491.015758 331.147278,472.695759 335.669945,446.922426 C337.591278,436.402426 339.965944,422.389093 340.869944,415.829094 C343.471278,398.415761 344.148611,340.429095 342.227278,290.349097 C341.209944,266.602431 340.869944,242.189098 341.323278,232.682431 C341.775278,223.642432 342.905944,201.029099 343.921944,182.375766 C344.940611,163.722433 345.957944,143.935767 346.296611,138.282434 C348.105944,101.775768 350.479278,63.215769 350.932611,60.8424357 C351.271278,59.2691024 351.836611,57.2291025 352.175277,56.2157692 C353.080611,52.8157693 336.348611,50.6691027 310.120612,50.6691027 L287.396612,50.6691027 L286.719279,69.6691027 C285.361946,112.855768 285.136612,171.975766 286.153946,319.175763 C286.832612,421.029093 286.153946,462.402426 283.779279,484.335758 C283.100613,489.882425 282.083279,505.255758 281.405946,518.589091 C280.727279,531.935757 279.483279,550.695757 278.579279,560.42909 C277.787279,570.14909 276.431279,591.282422 275.752613,607.455755 C275.073946,623.615755 274.056613,641.815755 273.491279,647.815754 C272.925946,653.802421 271.908613,672.68242 271.229946,689.64242 C270.665946,706.60242 269.64728,728.869086 268.969946,739.162419 C268.404613,749.442419 267.38728,772.615751 266.708613,790.602417 C265.577946,822.709083 264.33528,850.509083 262.18728,891.215748 C261.620613,902.402415 260.604613,924.562414 259.925946,940.38908 C259.360613,956.215747 258.116613,982.442413 257.325947,998.615746 C255.064613,1046.65574 255.516613,1092.89574 258.568613,1117.88241 C261.39528,1140.72241 263.20328,1148.85574 270.77928,1172.70907 C276.656613,1191.25574 281.517946,1201.30907 294.067279,1219.96241 C307.067279,1239.41574 319.504612,1252.06907 329.452611,1255.80241 C332.729945,1257.04241 332.617945,1256.81574 327.643278,1251.61574 C320.633945,1244.26907 310.685945,1231.49574 307.180612,1225.28241 C301.528612,1215.66907 284.683279,1177.45574 282.535279,1169.42907 C279.935279,1160.26907 279.709946,1158.24241 281.517946,1158.80241 C282.196613,1159.02907 284.005946,1163.32241 285.475279,1168.18907 C289.544612,1182.54907 309.555279,1224.14907 316.112612,1232.17574 C318.485945,1235.10907 322.556612,1240.20241 325.156611,1243.58907 C330.921945,1251.05574 340.531278,1258.62907 345.844611,1259.76241 L349.801944,1260.66907 L343.357944,1253.76241 C330.583278,1239.86907 319.391278,1218.04241 307.633945,1183.89574 C298.249946,1156.88241 290.901946,1113.69574 289.319279,1077.17574 C287.736612,1041.45574 287.848612,1021.78908 289.771279,1021.78908 C291.015279,1021.78908 291.353946,1028.45574 291.919279,1057.73574 C292.484612,1094.58908 294.067279,1111.21574 299.607279,1142.74908 C302.884612,1161.29574 305.711279,1171.34907 313.624612,1192.49574 C323.347278,1218.04241 326.173945,1224.14907 335.444611,1237.93574 C345.392611,1252.74907 355.115277,1261.90907 362.576611,1263.49574 C370.489944,1265.06907 370.71661,1264.96241 364.384611,1261.90907 L364.384611,1261.90907 Z M389.481943,1257.84241 C402.369943,1244.16241 406.779276,1232.73574 412.319276,1198.14907 C413.561943,1190.34907 414.919276,1175.65574 415.257943,1165.36241 C415.709943,1155.06908 416.615276,1142.41574 417.292609,1137.09574 C418.197943,1130.88241 418.649942,1113.69574 418.536609,1088.48241 C418.423276,1067.00241 418.084609,1005.50908 417.859276,951.695747 C417.292609,835.93575 418.084609,819.65575 426.224609,772.509085 C431.199276,744.242419 432.103275,731.815752 431.424609,700.72242 C430.859276,678.56242 429.955276,666.695754 426.789942,641.362421 C424.301942,621.469088 422.380609,599.429089 421.588609,582.015756 C420.119276,550.242423 418.876609,526.842424 417.067276,497.789091 C415.597943,475.175759 416.163276,459.469092 418.988609,445.789093 C421.024609,435.722426 421.249942,428.722427 420.684609,373.429095 C420.345942,342.802429 420.571276,331.949096 422.153942,319.735763 C423.963276,304.695763 424.867276,287.52243 427.355276,223.309098 C428.259276,197.975766 428.259276,183.615766 427.128609,158.8691 C425.659276,128.682434 425.432609,75.0957687 426.676609,60.2824357 C427.015276,56.5491025 426.903276,52.9357693 426.449942,52.1491026 C425.772609,51.242436 422.945942,51.5757693 415.936609,53.3891026 L406.327276,55.9891025 L405.535276,62.095769 C404.405943,71.8157688 404.517943,97.3624348 405.761943,113.989101 C407.909943,141.562434 402.935276,207.815765 398.979276,203.749099 C398.413943,203.175766 398.75261,198.655766 399.65661,193.682432 C402.483276,177.522433 403.50061,152.3091 403.275276,103.922435 C402.935276,62.095769 402.709943,56.4424358 401.239276,57.0024358 C400.335276,57.3491025 394.117943,57.9091025 387.56061,58.2424358 L375.46461,58.9224358 L374.899277,82.7757685 C374.333944,101.882435 373.76861,108.562435 371.845944,116.242434 C369.92461,123.815767 369.245944,131.389101 368.455277,151.295767 C368.003277,165.3091 366.87261,189.949099 366.193944,206.122432 C364.724611,238.109098 365.289944,284.575763 367.437944,311.255763 C369.245944,334.202429 369.359277,359.989095 367.77661,361.562428 C366.759277,362.589095 366.307277,357.375762 365.855277,340.989095 C365.515277,329.002429 364.724611,312.042429 364.045944,303.349096 C362.236611,278.469097 362.463277,203.975765 364.384611,179.549099 C365.401944,168.015766 366.193944,152.1891 366.193944,144.282434 C366.193944,133.309101 366.87261,126.642434 369.02061,116.695768 C372.299277,101.202435 373.655277,82.3224352 372.52461,68.5357689 L371.62061,58.6957691 L366.08061,57.5757691 C362.915277,56.8957692 359.976611,56.3224358 359.411277,56.3224358 C358.845944,56.3224358 358.393944,67.1757689 358.280611,82.0957685 C358.280611,97.9357681 357.601944,112.962434 356.584611,121.335768 C355.680611,128.789101 354.888611,140.775767 354.888611,147.895767 C354.776611,155.015767 354.097944,171.8691 353.193944,185.202433 C348.783278,251.002431 348.783278,249.415764 350.365944,288.989097 C353.871277,378.749094 353.305944,399.669094 346.296611,442.17576 C344.148611,455.402426 341.888611,474.282425 341.209944,484.229092 C340.644611,494.175758 339.852611,544.255757 339.627278,595.469089 C339.287278,646.682421 338.609944,695.975753 337.931278,705.135753 C336.008611,734.522419 336.461945,759.162418 339.852611,789.802418 C344.035278,827.682417 343.921944,860.682416 339.627278,901.495748 C338.044611,916.989081 335.669945,935.295747 334.425945,942.082414 C323.233945,1005.84241 321.877945,1018.73575 324.365945,1035.92241 C325.043278,1040.89574 326.060611,1062.25574 326.625945,1083.40241 C327.869945,1130.88241 330.017945,1158.80241 334.652611,1190.12241 C336.121945,1199.94907 345.731278,1230.25574 349.349944,1236.36241 C357.036611,1249.36241 362.463277,1256.93574 364.045944,1256.93574 C365.063277,1256.93574 367.32461,1258.06907 369.133944,1259.41574 L372.299277,1262.01574 L368.793944,1256.93574 C358.053944,1241.21574 351.609944,1219.17574 346.296611,1179.49574 C343.809944,1161.06907 342.905944,1103.29574 344.713944,1073.78908 C345.505944,1060.45574 346.523278,1048.46908 346.975278,1047.22908 C347.427278,1045.97574 347.540611,1067.57574 347.200611,1095.26908 C346.636611,1150.09574 347.313944,1165.69574 352.175277,1195.32241 C354.888611,1211.70907 359.976611,1232.29574 363.480611,1240.76241 C365.741944,1245.96241 374.107277,1259.18907 375.12461,1259.18907 C377.047277,1259.18907 382.473943,1237.37574 386.091277,1215.44241 C386.995277,1209.33574 388.691277,1211.25574 388.125943,1217.70907 C387.221943,1226.62907 383.377943,1244.72241 380.437943,1253.76241 C378.289944,1260.09574 378.06461,1262.36241 379.081943,1263.94907 C379.76061,1265.06907 380.66461,1265.97574 381.00461,1265.97574 C381.455277,1265.97574 385.187277,1262.24241 389.481943,1257.84241 L389.481943,1257.84241 Z M374.67261,1281.12241 C368.455277,1280.33574 359.297944,1278.64241 354.323277,1277.40241 C349.349944,1276.14907 342.792611,1274.80241 339.627278,1274.34907 C332.504611,1273.44241 321.651278,1269.36241 315.320612,1265.41574 C301.415279,1256.70907 283.553946,1233.18907 269.873946,1206.05574 C264.78728,1195.88241 256.19528,1169.77574 250.993947,1148.97574 C248.05528,1136.98908 243.30728,1104.88241 241.837947,1087.92241 C240.70728,1074.13574 241.724614,1032.64241 244.097947,997.482412 C245.45528,976.455746 245.56728,963.002413 244.324614,963.002413 C243.75928,963.002413 240.480614,966.055746 237.088614,969.78908 C233.697947,973.50908 230.305947,976.562413 229.627281,976.562413 C226.688614,976.562413 228.609947,972.162413 234.036614,966.055746 C237.201947,962.54908 239.46328,959.602413 239.01128,959.602413 C238.672614,959.602413 236.41128,960.62908 234.149947,961.762413 C224.200614,966.842413 220.471281,964.135746 229.288614,958.482413 C235.393947,954.522413 235.732614,952.82908 230.532614,952.82908 C226.575281,952.82908 225.444614,951.34908 227.705947,949.42908 C228.949947,948.415747 231.776614,948.18908 237.201947,948.642414 L245.00328,949.322414 L245.793947,930.442414 C246.133947,920.042414 246.924613,901.949081 247.489947,890.082415 C248.168613,878.322415 248.845947,845.762416 249.185947,817.722417 C249.864613,761.989085 252.237947,692.695753 254.83928,650.415754 C257.664613,605.082422 257.664613,609.042422 255.516613,609.602422 C254.49928,609.935755 250.65528,610.962422 246.924613,612.082422 C226.009947,617.855755 212.669948,628.709088 202.495281,648.375754 C192.320615,667.935754 182.032615,700.949086 180.224615,719.482419 C179.884615,723.109086 179.319282,728.082419 178.980615,730.455752 L178.528615,734.642419 L185.763282,734.642419 C189.833948,734.642419 193.337948,735.082419 193.676615,735.655752 C194.016615,736.215752 191.643282,737.349085 188.364615,738.029085 C178.755282,740.282419 178.755282,740.629085 187.572615,745.829085 C193.676615,749.442419 195.372615,751.029085 194.468615,751.935752 C193.451281,752.949085 191.416615,752.615752 186.441948,750.909085 C178.528615,748.202419 178.641948,748.309085 189.155282,759.282418 C197.520615,767.869085 195.372615,768.669085 184.972615,760.749085 L177.736615,755.095752 L176.945949,766.629085 C176.607282,772.962418 175.476615,791.389084 174.571282,807.549084 C172.763282,837.73575 172.084615,844.975749 168.240615,871.429082 C164.848616,894.935748 161.796616,909.189081 156.935282,924.789081 C150.604616,944.90908 144.839283,956.10908 135.908616,964.802413 C124.14995,976.455746 111.828617,981.082413 91.7046173,981.202413 C85.2606175,981.309079 83.6779509,980.749079 73.6166178,975.322413 C58.2419515,966.962413 47.9539518,956.442413 41.2832853,942.30908 C36.1966187,931.575747 30.6566189,913.602414 25.2299523,890.082415 C23.5339524,882.615749 21.7259524,876.069082 21.2739524,875.615749 C20.8219524,875.042415 18.6739525,877.309082 16.4126192,880.695749 C10.3086194,889.629082 7.14328611,893.242415 5.56061949,892.682415 C4.76861951,892.455748 5.44728616,890.082415 7.7072861,885.669082 C9.62995272,882.055749 11.2126193,879.002415 11.2126193,878.882415 C11.2126193,878.882415 8.83795274,878.775749 5.89928614,878.775749 C2.84595289,878.775749 0.245952953,878.322415 0.0206196253,877.642415 C-0.432713697,876.509082 6.68995279,872.335749 11.4379527,870.975749 C13.8126193,870.295749 13.587286,870.069082 9.1766194,868.042416 C1.82861958,864.642416 2.95928622,863.175749 12.3419527,864.082416 C16.6392859,864.535749 20.2566191,864.642416 20.2566191,864.535749 C20.2566191,864.309082 19.4646191,859.789082 18.4472858,854.469083 C16.0739526,841.242416 15.0566192,776.349085 16.7526192,751.362418 C20.4819524,698.349086 28.7352856,655.162421 42.3019519,618.189088 C54.5112849,584.722423 63.328618,566.74909 86.8432841,527.415757 C106.175284,494.855758 115.107283,485.135758 141.899283,467.269092 C175.136615,445.229093 214.365948,431.882426 252.464613,429.842427 L266.93528,429.05576 L266.708613,391.069094 C266.481946,370.162428 266.93528,325.615762 267.613946,292.04243 C268.29128,258.469097 269.196613,206.575765 269.53528,176.722433 C270.325946,116.589101 271.569946,84.4824351 274.056613,64.575769 C276.204613,47.8424361 276.204613,48.4157694 273.604613,48.4157694 C269.196613,48.4157694 256.872613,43.7757695 249.185947,39.2557696 C234.71528,30.7757698 198.764615,16.9891035 181.241948,13.3627036 C170.163282,11.1091036 143.143283,8.28257038 140.769949,9.18937036 C138.847283,9.97577034 136.699283,7.93617039 136.699283,5.45603712 C136.699283,0.362703911 154.787282,-1.55756271 175.136615,1.38937055 C191.303282,3.76270383 208.487281,7.82937039 218.096614,11.442437 C237.31528,18.7891035 249.637947,23.9891033 254.95128,27.0424366 C258.116613,28.8557699 261.169946,30.3224365 261.733946,30.3224365 C262.18728,30.3224365 259.020613,27.0424366 254.49928,22.8691033 C246.133947,15.2825702 241.15928,9.18937036 242.176614,8.05603705 C242.628614,7.70910373 247.828613,12.0159036 253.933947,17.6557701 C269.196613,31.6824365 271.229946,33.2691031 275.527279,34.0557697 L279.256613,34.8424364 L277.223279,32.2424364 C276.091279,30.8957698 272.248613,26.1357699 268.74328,21.73577 C265.125946,17.3224368 262.18728,13.2560369 262.18728,12.6825703 C262.18728,12.1227036 267.500613,17.0957702 273.831279,23.8824367 L285.475279,35.9757697 L291.919279,35.9757697 L298.363279,35.9757697 L288.188612,23.8824367 C278.579279,12.5757703 276.883279,9.97577034 278.917946,9.97577034 C279.369946,9.97577034 284.909946,15.7357702 291.240612,22.8691033 C302.319279,35.189103 302.997945,35.749103 307.859279,36.0957697 C311.137945,36.429103 312.495278,36.0957697 311.928612,35.4157697 C304.580612,26.2557699 296.101946,13.9361702 296.101946,12.4689703 C296.215279,11.1091036 296.893946,11.442437 298.701945,13.9361702 C306.163279,24.1091033 318.033945,37.109103 319.616612,36.989103 C320.633945,36.989103 323.347278,36.6557697 325.608611,36.2024363 L329.791278,35.4157697 L323.008612,27.1624366 C319.277945,22.5224367 316.564612,18.4557701 317.016612,18.1091035 C317.468612,17.6557701 321.877945,21.73577 326.964611,27.1624366 L336.235278,36.989103 L345.279278,38.9224363 C350.253944,39.9357696 358.393944,41.9757695 363.255277,43.4424362 C368.22861,44.9091028 372.411277,46.0424361 372.52461,45.8157694 C372.751277,45.6957694 368.793944,41.9757695 363.819277,37.669103 C353.871277,29.0824365 349.123278,23.53577 351.723277,23.53577 C352.627277,23.53577 354.776611,25.1224366 356.697944,27.0424366 C358.505944,28.9624365 364.497944,34.2824364 369.92461,38.9224363 C379.421943,46.9491027 380.099277,47.2824361 385.639277,47.2824361 L391.40461,47.2824361 L383.26461,39.2557696 C378.743277,34.8424364 375.351277,31.0024365 375.689944,30.6691032 C376.029944,30.3224365 380.437943,33.7091031 385.639277,38.2424363 C394.683276,46.0424361 395.135276,46.3757694 399.54461,45.5891028 C402.031276,45.2424361 404.517943,44.4557695 404.971276,44.0024362 C405.421943,43.5491028 403.613943,41.0691029 400.787276,38.469103 C393.779276,32.0157698 396.265943,31.3357698 404.065943,37.669103 C410.283276,42.7624362 410.396609,42.8691028 415.144609,41.5224362 C419.101942,40.4957696 427.920609,36.6557697 429.389942,35.2957697 C429.616609,35.069103 427.128609,32.4691031 423.849942,29.5357698 C416.388609,22.8691033 418.423276,21.61577 426.111276,28.0691032 C430.859276,32.0157698 432.781942,32.9224364 437.303275,33.1491031 L442.843275,33.4957697 L434.928609,26.0291033 C425.772609,17.3224368 426.563276,15.0689702 435.947275,23.2024367 C449.625942,35.069103 452.452608,36.8824363 459.573941,38.6957696 C472.123274,41.8557695 472.236608,41.4024362 461.044608,30.6691032 C455.392608,25.2424366 450.304608,19.8157701 449.625942,18.6824368 C446.912608,13.4825702 450.756608,16.1891035 462.173941,27.2691032 C472.915274,37.789103 475.061941,39.3757696 478.340608,39.3757696 C483.653941,39.3757696 485.576607,37.8957696 483.088608,35.869103 C479.019274,32.5891031 465.565941,16.5357702 466.244608,15.8557702 C466.584608,15.5091035 471.896608,20.1491034 478.001941,26.2557699 L489.080607,37.3357697 L494.507274,34.9624364 L499.820607,32.5891031 L492.359274,24.4424366 C488.289941,20.0424368 485.124607,16.0824369 485.463274,15.8557702 C485.915274,15.2825702 497.560607,25.01577 501.064607,28.9624365 C503.099274,31.2291031 503.212607,31.2291031 512.82194,26.8157699 C527.744606,19.8157701 538.25794,16.7624368 550.241939,15.6288369 C556.233939,15.1757702 570.025939,12.5757703 580.765938,9.97577034 C599.644605,5.56270378 609.141938,4.54923714 610.045938,7.14923707 C610.385938,8.28257038 592.409938,15.2825702 582.687272,17.8824368 C565.277939,22.41577 548.207273,25.8024366 543.005939,25.8024366 C535.20594,25.8024366 532.492606,26.9357699 516.779273,36.989103 C509.76994,41.5224362 500.839274,46.3757694 496.995274,47.8424361 C492.585941,49.5491027 490.097941,51.122436 490.324607,52.0291026 C491.568607,56.6691025 493.828607,81.8691019 494.393941,96.4557682 C495.637941,129.589101 496.428607,141.7891 498.124607,152.9891 C499.48194,162.255767 500.951274,189.162433 501.516607,214.602432 C501.62994,217.429098 502.195274,241.842431 502.98594,268.869097 C503.664607,295.88243 504.568607,331.722429 504.795274,348.335762 L505.360607,378.642428 L508.97794,377.962428 C511.012607,377.615761 514.96994,376.935761 518.02194,376.375761 C522.204607,375.589095 523.335273,375.695761 523.335273,376.935761 C523.335273,378.749094 518.92594,381.242428 512.143273,383.042428 L507.16994,384.402428 L516.100607,388.815761 C527.51794,394.469094 531.136606,397.175761 529.327273,398.989094 C528.423273,399.895761 526.275273,399.669094 520.508607,397.735761 C516.439273,396.389094 512.82194,395.482427 512.595273,395.709094 C512.36994,395.935761 514.404607,399.775761 517.231273,404.29576 C522.656607,413.122427 523.10994,414.69576 520.508607,414.69576 C519.039273,414.69576 513.952607,408.93576 508.412607,401.135761 C506.491274,398.415761 506.491274,400.455761 506.943274,444.095759 C507.847274,526.842424 508.86594,569.575756 509.995274,570.255756 C510.560607,570.602423 516.892607,572.175756 524.01394,573.655756 C551.145939,579.309089 587.775272,594.455756 612.759271,610.509089 C652.892603,636.282421 661.82327,644.082421 695.512602,683.655753 C703.425935,692.92242 718.236602,715.309086 723.888602,726.602419 C732.367268,743.455752 738.585934,766.175751 742.089934,792.975751 C745.255268,817.389083 746.839268,937.455747 744.237934,952.255747 L743.672601,955.655747 L754.412601,955.30908 C761.535267,954.975747 765.265934,955.30908 765.265934,956.10908 C765.265934,957.802413 761.421934,959.602413 756.108601,960.50908 L751.473934,961.30908 L760.631267,966.162413 C765.717934,968.882413 769.675267,971.70908 769.4486,972.38908 C768.883267,974.30908 765.379267,973.50908 756.221934,969.78908 L748.308601,966.50908 L752.716601,972.94908 C755.091267,976.455746 757.917934,981.082413 758.935267,983.122413 C760.856601,986.735746 760.856601,986.962413 758.935267,986.509079 C757.804601,986.282413 754.073934,982.789079 750.568601,978.709079 L744.351268,971.135746 L743.560601,986.055746 C741.412601,1026.41574 738.020601,1052.20241 733.611268,1062.14908 C730.445935,1069.37574 722.193935,1080.45574 714.505935,1087.69574 C701.279269,1100.36241 685.339269,1104.98908 662.388603,1103.06908 C654.136603,1102.28241 647.57927,1101.14908 644.413937,1099.68241 C638.08327,1096.85574 618.299271,1077.62908 613.211271,1069.26908 C606.767271,1058.64241 597.157938,1029.69574 595.236605,1014.89575 C591.392605,986.735746 589.923272,955.882413 589.471272,897.989081 C589.244605,866.109082 588.565938,834.802416 587.775272,827.909083 C584.723272,798.175751 577.713939,781.322418 559.624606,760.522418 C546.284606,745.042419 547.076606,745.709085 532.944606,737.122419 C515.647273,726.602419 517.231273,725.815752 518.135273,744.922419 C518.475273,753.855752 519.379273,768.895751 520.05794,778.162418 C520.62194,787.549084 521.41394,826.77575 521.752607,865.549082 C522.204607,923.429081 522.091273,938.802414 520.62194,952.02908 C519.71794,960.855747 518.700607,972.722413 518.36194,978.255746 C518.02194,983.909079 516.892607,994.762412 515.987273,1002.56241 C511.239274,1042.24241 508.639274,1073.33574 508.52594,1093.00241 L508.412607,1113.92241 L516.439273,1115.28241 C527.51794,1117.09574 529.55394,1117.76241 527.971273,1119.34908 C527.179273,1120.13574 522.996607,1120.58908 517.11794,1120.36241 C511.804607,1120.25574 507.508607,1120.36241 507.508607,1120.58908 C507.508607,1121.16241 520.508607,1130.20241 523.900607,1132.12241 C525.144606,1132.80241 526.275273,1134.26908 526.50194,1135.29574 C527.06594,1138.22908 522.544607,1137.54908 515.647273,1133.58908 L509.543274,1130.20241 L513.160607,1135.29574 C515.196607,1138.12241 518.02194,1141.50908 519.492607,1142.86908 C522.656607,1145.80241 523.10994,1149.53574 520.283273,1149.53574 C519.26594,1149.53574 515.647273,1146.70908 512.36994,1143.32241 C505.47394,1136.18908 506.37794,1134.84241 503.551274,1156.32241 C501.28994,1173.94907 495.751274,1201.65574 492.699274,1210.92241 C488.968607,1222.22907 480.828608,1237.82907 475.401941,1244.04241 C468.053941,1252.41574 451.887275,1264.05574 439.564609,1269.81574 C427.355276,1275.58907 399.883276,1283.04241 391.40461,1282.83355 C388.46461,1282.70907 380.891277,1282.02907 374.67261,1281.12241" id="path276" transform="translate(384.728936, 641.418922) scale(-1, 1) rotate(-180.000000) translate(-384.728936, -641.418922) "></path>
            <path d="M360.541944,97.4731989 C360.541944,95.4465322 362.801944,88.2065324 365.401944,81.4198659 C369.699277,70.6865329 370.71661,68.9798662 373.881944,67.6331996 C375.91661,66.8331996 378.289944,66.3798663 379.195277,66.726533 C380.099277,67.0598663 383.151277,71.5798662 385.977943,76.7931994 C393.439276,90.5798657 392.76061,93.9665323 384.281943,84.4731992 L379.533943,79.0465326 L380.437943,90.1265324 C381.11661,99.5131988 381.00461,101.086532 379.421943,101.086532 C377.16061,101.086532 376.481944,99.0598655 375.011277,86.1665325 L373.655277,75.0865327 L370.151277,83.7931992 C363.593944,99.8465321 360.541944,104.366532 360.541944,97.4731989" id="path278" transform="translate(375.841268, 83.847651) scale(-1, 1) rotate(-180.000000) translate(-375.841268, -83.847651) "></path>
            <path d="M388.80461,343.150517 C388.80461,342.24385 389.25661,336.363851 389.935277,329.803851 C390.50061,323.363851 391.517943,288.097185 392.19661,251.577186 C393.213943,192.897187 393.10061,183.177188 391.517943,169.390521 C390.04861,156.270522 389.935277,150.617189 390.95261,136.150522 C391.969943,120.670523 393.55261,111.61719 395.021943,113.083856 C395.24861,113.310523 394.90861,120.097189 394.229943,128.123856 C393.55261,137.510522 393.439276,148.470522 394.00461,158.643855 C395.925943,189.177188 393.89261,330.257184 391.517943,341.56385 C390.839277,344.617184 388.80461,345.857184 388.80461,343.150517" id="path280" transform="translate(391.948248, 228.786309) scale(-1, 1) rotate(-180.000000) translate(-391.948248, -228.786309) "></path>
            <path d="M346.409944,630.766423 C345.053944,627.259756 350.365944,580.126424 354.323277,560.339758 C357.149944,546.206425 361.445944,498.726426 359.976611,496.45976 C359.184611,495.21976 357.715277,380.699763 357.715277,323.833097 C357.715277,289.459765 358.053944,273.526432 358.959277,272.619765 C359.863277,271.713099 359.976611,280.419765 359.636611,303.366431 C359.411277,321.006431 359.749944,351.419763 360.541944,370.979763 C361.220611,390.539762 361.897944,433.833095 362.011277,467.073094 C362.236611,532.193092 362.011277,535.126425 355.567277,571.646425 C352.288611,589.953091 349.236611,615.059757 349.236611,623.419757 C349.236611,629.979756 347.653944,634.046423 346.409944,630.766423" id="path282" transform="translate(354.128758, 452.240927) scale(-1, 1) rotate(-180.000000) translate(-354.128758, -452.240927) "></path>
            <path d="M396.039276,453.518234 C396.379276,451.131567 397.057943,443.451567 397.395276,436.558234 C397.84861,429.211568 398.64061,423.784901 399.317943,423.784901 C400.561943,423.784901 399.769943,450.691567 398.413943,455.211567 C397.057943,459.3849 395.24861,458.1449 396.039276,453.518234" id="path284" transform="translate(397.892736, 440.770164) scale(-1, 1) rotate(-180.000000) translate(-397.892736, -440.770164) "></path>
            <path d="M392.083276,497.896563 C391.291277,496.429897 389.481943,491.789897 388.125943,487.389897 C386.65661,482.643231 385.525943,480.603231 385.525943,482.296564 C385.299277,486.376564 383.377943,492.816564 381.56861,495.296564 C380.325943,497.00323 379.647277,497.229897 378.51661,496.20323 C377.27261,494.96323 377.499277,492.589897 380.437943,476.416564 C380.777943,474.496564 381.795277,473.256564 382.81261,473.256564 C383.829943,473.256564 385.187277,472.469897 385.977943,471.336564 C386.881943,470.203231 387.899277,469.869898 388.917943,470.536564 C389.821943,470.989897 391.85661,471.336564 393.439276,471.216564 C396.039276,470.883231 397.169943,472.016564 401.69261,479.016564 C409.153943,490.669897 408.700609,493.949897 400.787276,485.80323 C398.413943,483.323231 395.81261,481.616564 395.021943,481.963231 C394.229943,482.189897 393.325943,481.509897 392.987276,480.376564 C392.535276,478.563231 392.421943,478.563231 392.30861,480.603231 C392.30861,481.843231 392.987276,485.92323 393.89261,489.64323 C395.81261,497.669897 395.925943,500.389897 394.45661,500.389897 C393.89261,500.389897 392.76061,499.256563 392.083276,497.896563" id="path286" transform="translate(392.409633, 485.292662) scale(-1, 1) rotate(-180.000000) translate(-392.409633, -485.292662) "></path>
            <path d="M399.65661,804.675342 C400.335276,789.742009 398.30061,706.995345 396.717943,689.582012 C394.00461,657.928679 391.969943,616.102014 392.647276,601.968681 C393.779276,576.422015 394.683276,566.355348 395.70061,565.342015 C397.169943,563.755348 396.94461,576.075348 395.361943,591.675348 C394.00461,604.902014 395.021943,637.355347 397.84861,672.622012 C398.527276,680.088679 399.769943,695.355345 400.673943,706.542012 C402.483276,729.488678 403.38861,800.035343 401.917943,810.888676 C400.335276,822.648675 398.979276,818.808675 399.65661,804.675342" id="path288" transform="translate(397.584135, 691.528716) scale(-1, 1) rotate(-180.000000) translate(-397.584135, -691.528716) "></path>
            <path d="M355.567277,870.71012 C352.627277,818.603455 354.549944,772.136789 360.993944,734.830124 C362.124611,728.723457 362.801944,717.416791 362.915277,706.003458 C363.028611,681.576792 364.272611,665.643459 365.515277,670.043459 C367.097944,675.363458 365.515277,727.81679 363.480611,738.110124 C358.959277,761.510123 357.828611,779.483456 357.828611,831.710121 C357.715277,880.656787 356.923277,894.563453 355.567277,870.71012" id="path290" transform="translate(360.192247, 775.706104) scale(-1, 1) rotate(-180.000000) translate(-360.192247, -775.706104) "></path>
            <path d="M395.361943,1006.72597 C395.587276,975.299309 396.039276,964.099309 397.395276,956.645976 C400.673943,939.232643 401.127276,930.97931 399.431276,910.859311 C397.621943,888.019311 397.283276,856.032645 398.979276,856.032645 C399.65661,856.032645 400.109943,862.365978 400.109943,872.765978 C400.109943,881.912645 400.90061,898.312644 401.917943,909.165977 C403.727276,929.965977 403.275276,940.245976 400.335276,951.552643 C398.979276,956.872643 398.527276,967.832642 397.961943,1002.31264 C397.50861,1030.01931 396.831276,1046.52597 396.15261,1046.75264 C395.361943,1046.97931 395.135276,1033.29931 395.361943,1006.72597" id="path292" transform="translate(399.134104, 951.394029) scale(-1, 1) rotate(-180.000000) translate(-399.134104, -951.394029) "></path>
            <path d="M273.604613,368.350497 C271.004613,358.403831 267.83928,338.950498 266.03128,320.870498 C264.108613,301.643832 264.108613,300.857165 266.59528,264.337166 C268.177946,242.6305 269.421946,212.337168 269.64728,191.083835 C270.212613,153.323836 270.552613,148.123836 272.587279,146.883836 C274.169946,145.857169 273.039279,239.243834 271.34328,251.563833 C269.421946,265.3505 267.04728,296.897165 267.500613,302.443832 C267.725946,305.270499 268.404613,312.163832 268.969946,317.697165 C269.53528,323.350498 270.325946,332.283831 270.665946,337.603831 C271.004613,342.910498 272.473946,352.977164 273.831279,359.977164 C275.300613,366.88383 275.977946,372.52383 275.527279,372.52383 C275.073946,372.52383 274.169946,370.60383 273.604613,368.350497" id="path294" transform="translate(270.159062, 259.699632) scale(-1, 1) rotate(-180.000000) translate(-270.159062, -259.699632) "></path>
            <path d="M292.709946,495.528375 C292.709946,473.368375 293.727279,459.021709 297.684612,421.14171 C299.267279,406.555044 300.963279,387.568377 301.641945,378.861711 C302.207279,370.275044 303.224612,362.701711 303.901945,362.021711 C304.807279,361.115045 305.145945,361.901711 305.145945,364.621711 C305.145945,374.901711 302.545945,406.90171 299.945945,428.94171 C298.024612,446.008376 296.893946,461.848376 296.553946,481.621708 C295.988612,511.248374 295.649946,514.981708 293.840612,514.981708 C293.163279,514.981708 292.709946,507.515041 292.709946,495.528375" id="path296" transform="translate(298.927945, 438.321902) scale(-1, 1) rotate(-180.000000) translate(-298.927945, -438.321902) "></path>
            <path d="M273.944613,767.528752 C274.283279,765.595419 275.073946,759.608752 275.752613,754.182086 C276.317946,748.755419 277.673946,737.448753 278.692613,729.088753 C279.596613,720.71542 280.952613,701.15542 281.517946,685.555421 C282.083279,670.075421 282.988613,652.435422 283.667279,646.555422 C284.231279,640.675422 285.249946,614.448756 285.927279,588.34209 C287.171279,539.728758 288.188612,515.302092 291.127279,466.80876 C292.032612,451.542093 293.163279,432.888761 293.501946,425.315427 C294.067279,414.582094 294.519279,411.408761 295.763279,411.408761 C296.893946,411.408761 297.119279,412.648761 296.780612,416.835428 C296.441946,419.782094 295.311279,438.662094 294.405946,458.88876 C293.501946,479.128759 292.144612,505.582092 291.580612,517.675425 C291.015279,529.768758 290.223279,555.555424 289.771279,574.768757 C289.432612,594.10209 288.640612,616.488756 288.075279,624.515422 C285.927279,654.702088 284.796613,673.688755 283.779279,694.608754 C282.196613,726.368753 276.656613,770.915419 274.395279,770.915419 C273.717946,770.915419 273.491279,769.448752 273.944613,767.528752" id="path298" transform="translate(285.316804, 591.162090) scale(-1, 1) rotate(-180.000000) translate(-285.316804, -591.162090) "></path>
            <path d="M304.693945,913.529059 C302.319279,908.209059 306.389945,836.315727 310.345945,815.622394 C311.477945,809.409061 311.928612,801.489061 311.703278,793.022395 C311.024612,767.462395 311.816612,729.702396 313.060612,725.409063 C315.207278,717.95573 316.903278,677.022398 315.547278,667.982398 C312.833945,651.249065 312.720612,642.209065 314.868612,635.089065 C315.999278,631.129066 317.129945,622.755732 317.468612,614.622399 C318.033945,603.195733 318.372612,600.9424 319.729945,601.729066 C321.877945,603.089066 321.537945,627.062399 319.277945,633.502399 C317.129945,639.489065 317.129945,652.262398 319.164612,665.715731 C320.181945,672.849065 320.408612,678.942398 319.729945,686.075731 C319.277945,691.715731 318.825945,700.87573 318.825945,706.649064 C318.712612,712.302397 317.921945,720.662397 317.016612,725.07573 C315.772612,731.062396 315.320612,740.102396 315.433945,761.022396 C315.660612,798.782395 315.433945,808.395728 314.077945,814.382394 C312.268612,822.409061 308.537945,862.315726 306.955279,890.129059 C306.163279,904.715725 305.145945,914.662392 304.693945,913.529059" id="path300" transform="translate(312.579916, 757.602241) scale(-1, 1) rotate(-180.000000) translate(-312.579916, -757.602241) "></path>
            <path d="M298.701945,1005.27541 C298.815279,999.728746 297.911279,967.848747 296.780612,934.275415 C294.745946,876.622083 294.859279,846.662084 297.232612,846.662084 C297.684612,846.662084 298.363279,874.022083 298.815279,907.475415 C299.267279,940.835415 300.059279,975.54208 300.736612,984.46208 C301.755279,1000.52875 301.189945,1015.10208 299.493945,1015.10208 C298.928612,1015.10208 298.588612,1010.70208 298.701945,1005.27541" id="path302" transform="translate(298.295485, 930.882081) scale(-1, 1) rotate(-180.000000) translate(-298.295485, -930.882081) "></path>
            <path d="M327.417945,1018.29542 C327.077945,1016.81542 325.835278,1012.41542 324.591278,1008.34875 L322.443278,1000.98875 L319.955278,1009.24208 C318.372612,1014.21542 316.903278,1017.38875 315.885945,1017.38875 C313.399278,1017.38875 313.060612,1014.10875 314.189945,1003.81542 C314.755278,998.50875 315.320612,993.762083 315.320612,993.30875 C315.320612,992.735416 313.624612,994.54875 311.703278,997.14875 C307.293945,1002.80208 305.145945,1003.93542 305.145945,1000.32208 C305.145945,997.722083 309.103279,990.02875 313.851278,983.815417 C316.676612,979.962083 320.973945,978.722083 320.973945,981.775417 C320.973945,982.78875 322.216612,984.042083 323.687278,984.602083 C326.625945,985.735417 327.643278,988.78875 330.017945,1005.74875 C331.373945,1014.89542 330.921945,1020.77542 329.000611,1020.77542 C328.435278,1020.77542 327.756611,1019.64208 327.417945,1018.29542" id="path304" transform="translate(317.972756, 1000.418748) scale(-1, 1) rotate(-180.000000) translate(-317.972756, -1000.418748) "></path>
            <path d="M298.928612,1224.37333 C299.153945,1222 299.945945,1183.68 300.624612,1139.25333 C302.093945,1044.4 301.980612,1049.72 303.789945,1049.04 C305.484612,1048.46667 305.711279,1129.86667 304.128612,1159.37333 C303.449945,1169.77333 302.772612,1188.42666 302.319279,1200.86666 C301.980612,1213.29333 301.415279,1224.6 301.076612,1226.08 C299.945945,1230.14666 298.249946,1228.90666 298.928612,1224.37333" id="path306" transform="translate(301.985282, 1138.791037) scale(-1, 1) rotate(-180.000000) translate(-301.985282, -1138.791037) "></path>
            <path d="M320.408612,1171.28926 C321.199278,1117.58259 321.651278,1111.03592 324.139278,1110.12926 C325.269945,1109.78259 325.381945,1114.98259 324.929945,1133.86259 C324.591278,1147.08926 324.139278,1172.19592 323.912612,1189.71592 C323.799278,1207.12925 323.233945,1222.04925 322.781945,1222.72925 C319.955278,1227.35592 319.729945,1221.82259 320.408612,1171.28926" id="path308" transform="translate(322.632679, 1167.075665) scale(-1, 1) rotate(-180.000000) translate(-322.632679, -1167.075665) "></path>
            <path d="M471.332608,388.107268 C471.332608,387.440602 472.349941,380.080602 473.592608,371.720602 C476.305941,353.627269 476.871274,340.520603 476.984608,290.893937 C476.984608,265.453938 477.776608,244.200605 479.245941,224.187272 C480.376608,208.01394 481.845941,177.947274 482.524608,157.267274 C483.541941,122.893942 484.445941,113.853942 486.480607,117.120608 C486.819274,117.800608 486.707274,125.160608 486.028607,133.400608 C485.463274,141.653941 484.897941,158.613941 484.897941,171.05394 C484.897941,184.05394 483.880608,204.400606 482.637941,219.093939 C481.167274,236.280606 480.376608,254.707272 480.376608,275.627271 C480.263274,323.440603 478.680608,357.707269 475.967274,373.413935 C474.611274,380.880602 473.027274,387.440602 472.461941,388.000602 C471.783274,388.680602 471.332608,388.680602 471.332608,388.107268" id="path310" transform="translate(478.999173, 252.511352) scale(-1, 1) rotate(-180.000000) translate(-478.999173, -252.511352) "></path>
            <path d="M457.425942,341.754364 C455.731275,340.06103 456.635275,336.674364 458.669941,337.007697 C459.687275,337.234364 460.591275,338.367697 460.591275,339.487697 C460.591275,341.754364 458.783275,342.994364 457.425942,341.754364" id="path312" transform="translate(458.564389, 339.614897) scale(-1, 1) rotate(-180.000000) translate(-458.564389, -339.614897) "></path>
            <path d="M455.956608,362.491353 C455.052608,360.011353 456.296608,358.771353 457.991275,360.464687 C459.008608,361.47802 459.008608,362.15802 457.991275,363.171353 C456.973942,364.19802 456.521942,363.971353 455.956608,362.491353" id="path314" transform="translate(457.203673, 361.743391) scale(-1, 1) rotate(-180.000000) translate(-457.203673, -361.743391) "></path>
            <path d="M469.523275,389.408714 C469.071275,388.395381 469.296608,387.035381 469.975275,386.355381 C471.671275,384.662047 474.949941,386.235381 474.497941,388.502047 C474.044608,391.102047 470.427275,391.782047 469.523275,389.408714" id="path316" transform="translate(471.914117, 388.255404) scale(-1, 1) rotate(-180.000000) translate(-471.914117, -388.255404) "></path>
            <path d="M487.837941,762.013085 C489.420607,746.519752 489.080607,720.973086 486.707274,686.159754 C484.107274,646.133088 484.672608,605.666422 488.176607,576.839756 C491.793941,547.786424 491.116607,526.186424 485.801941,496.573092 C483.541941,484.586425 483.315274,478.826425 483.201941,446.933093 C483.201941,417.093094 483.428608,410.75976 484.784608,410.306427 C486.141941,409.853094 486.255274,414.15976 485.801941,437.333093 C485.124607,465.706426 486.255274,483.346425 489.984607,501.653092 C490.889941,506.293091 492.245941,519.066424 493.037941,529.919757 C494.281941,549.026424 494.281941,550.61309 491.116607,577.959756 C488.176607,603.399756 487.837941,609.399755 488.063274,638.453088 C488.176607,658.346421 489.193941,683.213087 490.664607,703.453086 C492.811274,731.719752 492.924607,738.053086 491.793941,749.799752 C489.984607,768.679752 489.420607,771.853085 488.063274,771.853085 C487.272607,771.853085 487.159274,768.799752 487.837941,762.013085" id="path318" transform="translate(488.506941, 591.064256) scale(-1, 1) rotate(-180.000000) translate(-488.506941, -591.064256) "></path>
            <path d="M460.365941,641.651473 C460.704608,627.064807 461.609941,620.171474 464.548608,606.038141 L468.167275,588.518141 L467.600608,556.851475 C466.921941,521.811476 468.279275,511.518143 469.749941,540.011476 C471.557941,572.691475 470.879275,588.624808 466.809941,607.731474 C464.435275,619.264807 462.965941,630.11814 462.400608,641.424807 C461.835275,650.571473 461.044608,658.491473 460.591275,658.944806 C460.140608,659.39814 460.027275,651.59814 460.365941,641.651473" id="path320" transform="translate(465.432680, 591.250116) scale(-1, 1) rotate(-180.000000) translate(-465.432680, -591.250116) "></path>
            <path d="M439.339275,749.816294 C438.885942,749.362961 438.547275,748.016294 438.547275,746.882961 C438.547275,745.296294 439.225942,744.736294 441.147275,745.069628 C442.729942,745.296294 443.633942,746.202961 443.633942,747.669628 C443.633942,749.936294 440.808609,751.296294 439.339275,749.816294" id="path322" transform="translate(441.090609, 747.705857) scale(-1, 1) rotate(-180.000000) translate(-441.090609, -747.705857) "></path>
            <path d="M464.096608,999.350214 C463.756608,998.790214 462.400608,988.150214 461.156608,975.830215 C459.121941,956.163549 458.783275,945.763549 458.896608,890.710217 C458.896608,816.776885 460.252608,763.416887 462.173941,761.483553 C463.079275,760.59022 463.417941,760.696887 463.417941,761.936887 C463.417941,762.736887 462.852608,779.576886 462.173941,799.136886 C460.704608,846.950218 460.704608,953.230215 462.287275,968.483548 C462.965941,975.150215 463.983275,984.883548 464.548608,990.083548 C465.565941,999.350214 465.452608,1001.72355 464.096608,999.350214" id="path324" transform="translate(462.051263, 880.552817) scale(-1, 1) rotate(-180.000000) translate(-462.051263, -880.552817) "></path>
            <path d="M438.207275,777.238388 C436.624609,775.531721 437.529942,773.385055 439.789942,773.385055 C441.372609,773.385055 441.939275,773.958388 441.712609,775.318388 C441.372609,777.345054 439.451275,778.358388 438.207275,777.238388" id="path326" transform="translate(439.585814, 775.543570) scale(-1, 1) rotate(-180.000000) translate(-439.585814, -775.543570) "></path>
            <path d="M444.199275,797.560545 C444.199275,795.067212 446.799275,793.707212 448.495275,795.400545 C450.191275,797.107211 448.835275,799.707211 446.347275,799.707211 C444.991275,799.707211 444.199275,798.907211 444.199275,797.560545" id="path328" transform="translate(446.724590, 797.177981) scale(-1, 1) rotate(-180.000000) translate(-446.724590, -797.177981) "></path>
            <path d="M625.760604,455.808452 C625.533937,455.355119 625.760604,445.515119 626.325937,434.101786 C629.829937,360.275121 629.716604,329.195122 625.760604,314.608456 C624.856604,311.328456 624.629937,308.608456 625.195271,308.608456 C625.647271,308.608456 626.664604,310.755122 627.343271,313.475122 C628.021937,316.075122 628.812604,319.008455 629.039271,319.915122 C630.847271,326.248455 631.639271,355.195121 630.733937,379.835121 C630.169937,395.101787 629.264604,418.608456 628.925937,432.181786 C628.247271,453.995119 627.681937,458.861785 625.760604,455.808452" id="path330" transform="translate(627.998693, 382.621941) scale(-1, 1) rotate(-180.000000) translate(-627.998693, -382.621941) "></path>
            <path d="M617.168604,491.95182 C617.168604,490.485154 615.811271,486.645154 614.228604,483.365154 C610.272604,475.445154 611.515271,474.658488 615.924604,482.338487 C619.316604,488.218487 620.560604,494.55182 618.299271,494.55182 C617.733938,494.55182 617.168604,493.418487 617.168604,491.95182" id="path332" transform="translate(615.643992, 485.766957) scale(-1, 1) rotate(-180.000000) translate(-615.643992, -485.766957) "></path>
            <path d="M677.989936,506.595425 C678.329936,496.542092 677.876603,484.208759 677.199269,478.555426 C675.276603,464.435426 669.397936,436.16876 666.232603,425.875427 C663.85927,418.422094 655.492603,398.742095 652.213937,393.088762 C650.857937,390.608762 650.744603,389.928762 652.100603,389.928762 C653.57127,389.928762 667.588603,421.355427 670.076603,430.622094 C677.537936,457.875427 682.172603,494.955426 680.477936,513.155425 C679.912603,518.475425 679.459269,523.102092 679.459269,523.675425 C679.345936,524.115425 678.893936,524.462092 678.441936,524.462092 C677.989936,524.462092 677.764603,516.435425 677.989936,506.595425" id="path334" transform="translate(665.982824, 457.195427) scale(-1, 1) rotate(-180.000000) translate(-665.982824, -457.195427) "></path>
            <path d="M712.809935,566.47221 C712.471268,565.338877 711.113935,557.538877 709.869935,549.178877 C706.365935,526.232211 700.373935,505.885545 691.329936,485.418879 C688.051269,477.952213 687.939269,477.498879 689.521936,478.525546 C692.912602,480.552212 704.671269,511.645545 708.627269,528.832211 C712.357935,545.218878 715.861935,576.418877 712.809935,566.47221" id="path336" transform="translate(701.251654, 523.253818) scale(-1, 1) rotate(-180.000000) translate(-701.251654, -523.253818) "></path>
            <path d="M672.563269,617.116985 C671.093936,614.970318 662.61527,606.263652 653.684603,597.783652 C638.98727,583.876986 634.465937,578.783652 639.325937,581.503652 C642.152604,583.090319 671.20727,611.010318 674.485936,615.183652 C676.293936,617.570318 676.972603,619.596985 676.407269,620.170318 C675.728603,620.850318 674.259269,619.596985 672.563269,617.116985" id="path338" transform="translate(657.026277, 600.576204) scale(-1, 1) rotate(-180.000000) translate(-657.026277, -600.576204) "></path>
            <path d="M91.139284,483.291911 C90.687284,482.611911 90.9139507,479.105244 91.591284,475.491911 C92.2699507,471.531911 92.383284,460.678578 92.0446173,449.038578 C91.3659507,431.398579 91.591284,427.211912 94.1926173,410.038579 C96.7926172,392.95858 97.1312839,387.305247 97.1312839,359.611914 C97.1312839,329.771915 97.6966172,317.891915 99.2792838,317.891915 C99.6179505,317.891915 99.8446171,335.305248 99.6179505,356.558581 C99.2792838,390.705246 98.9406172,397.705246 96.4526172,415.011913 C93.8526173,433.091912 93.7392839,435.691912 94.9832839,448.811912 C95.8886172,459.665245 95.8886172,465.091911 94.8699506,472.105244 C93.4006173,481.825244 92.2699507,485.105244 91.139284,483.291911" id="path340" transform="translate(95.306754, 400.830337) scale(-1, 1) rotate(-180.000000) translate(-95.306754, -400.830337) "></path>
            <path d="M128.78595,433.921975 C128.78595,431.321975 129.23795,431.215309 132.28995,432.788642 C135.343283,434.481975 135.004616,436.188642 131.612616,436.188642 C129.576616,436.188642 128.78595,435.615309 128.78595,433.921975" id="path342" transform="translate(131.584613, 433.972035) scale(-1, 1) rotate(-180.000000) translate(-131.584613, -433.972035) "></path>
            <path d="M134.099283,456.959111 C132.968616,455.945777 133.195283,452.105777 134.32595,452.105777 C134.891283,452.105777 135.908616,452.892444 136.699283,453.799111 C138.620616,456.172444 136.247283,459.225777 134.099283,456.959111" id="path344" transform="translate(135.381285, 454.930602) scale(-1, 1) rotate(-180.000000) translate(-135.381285, -454.930602) "></path>
            <path d="M106.288617,623.126636 C106.175284,615.65997 110.359284,591.806637 115.219283,572.819971 C119.74195,555.526638 121.776617,549.753305 123.811283,549.753305 C125.732616,549.753305 125.84595,551.113305 124.14995,552.806638 C122.455283,554.499971 113.636617,590.793304 110.69795,607.97997 C107.30595,628.326636 106.40195,631.273303 106.288617,623.126636" id="path346" transform="translate(115.814389, 588.547697) scale(-1, 1) rotate(-180.000000) translate(-115.814389, -588.547697) "></path>
            <path d="M46.2579518,533.835425 C46.2579518,532.368758 46.9366185,526.715425 47.8406184,521.062092 C49.5366184,509.195425 48.6326184,465.20876 46.2579518,449.275427 C45.2406185,442.835427 45.1272852,437.40876 45.8059518,432.875427 L46.7099518,426.102094 L47.5019518,436.835427 C47.8406184,442.715427 48.7459517,450.862093 49.4232851,454.92876 C51.3459517,466.462093 51.571285,515.968758 49.763285,527.048758 C48.9712851,532.142091 47.8406184,536.328758 47.2752851,536.328758 C46.7099518,536.328758 46.2579518,535.195425 46.2579518,533.835425" id="path348" transform="translate(48.189259, 481.215426) scale(-1, 1) rotate(-180.000000) translate(-48.189259, -481.215426) "></path>
            <path d="M50.7806184,755.044438 C50.7806184,748.031105 54.5112849,719.991106 56.3192849,713.097773 C56.9979515,710.844439 58.2419515,704.84444 59.2592848,699.991106 C60.2766181,695.017773 64.120618,683.137774 67.6246179,673.417774 C71.2432845,663.697774 75.0872844,652.951108 76.2166177,649.564441 C77.3472844,646.177774 80.6259509,638.031108 83.5646175,631.471108 C86.5046175,624.924442 90.235284,615.991109 91.931284,611.471109 C94.7566173,603.897776 107.75795,584.111109 111.14995,582.071109 C111.940617,581.617776 116.011283,575.964443 120.307283,569.644443 C124.48995,563.31111 128.672616,557.884443 129.576616,557.537777 C130.48195,557.204443 131.047283,557.204443 130.820616,557.657777 C129.464616,560.817777 114.880617,581.844443 112.167283,584.671109 C105.723284,591.337776 96.6792839,606.044442 92.4966173,616.777775 C90.235284,622.657775 86.7299508,631.031108 84.8086175,635.204441 C82.8872842,639.391108 79.8352843,647.311108 78.025951,652.724441 C76.2166177,658.164441 72.2592845,669.457774 69.0939512,677.831107 C61.4072848,698.631106 54.8499516,731.524439 53.8326183,754.591105 C53.4939516,763.404438 50.7806184,763.857772 50.7806184,755.044438" id="path350" transform="translate(90.825650, 659.366598) scale(-1, 1) rotate(-180.000000) translate(-90.825650, -659.366598) "></path>
            <path d="M505.247274,1263.82742 C502.647274,1261.00076 500.839274,1258.40076 501.064607,1258.06742 C501.855274,1257.38769 513.160607,1266.88076 513.160607,1268.24076 C513.160607,1270.49409 509.543274,1268.46742 505.247274,1263.82742" id="path352" transform="translate(507.103134, 1263.598081) scale(-1, 1) rotate(-180.000000) translate(-507.103134, -1263.598081) "></path>
        </g>
    </g>
</svg>