
<svg width="635px" height="846px" viewBox="0 0 635 846" version="1.1" xmlns="http://www.w3.org/2000/svg" xmlns:xlink="http://www.w3.org/1999/xlink">
    <g id="Page-1" stroke="none" stroke-width="1" fill="none" fill-rule="evenodd">
        <g id="Group-2" transform="translate(0.706756, 0.691580)" fill="#FF8F5F">
            <path d="M612.466535,825.59945 C612.466535,818.186117 610.533201,790.652784 607.626535,758.599452 C602.679868,702.039453 600.213202,664.506121 597.413202,599.986122 C596.773202,585.252789 595.479868,561.69279 594.626535,547.826124 C592.679868,515.666124 592.679868,475.226125 594.733202,440.812793 C598.066535,383.932794 600.639868,345.212795 602.679868,320.906129 C603.866535,307.039463 605.373201,287.892797 606.013201,278.42613 C606.666535,268.972797 607.853201,255.412798 608.706535,248.319464 C609.573201,241.226131 610.746535,228.212798 611.399868,219.279465 C612.039868,210.466132 613.013201,198.106132 613.653201,191.866132 C617.519868,151.426133 620.533201,83.1328018 619.466534,56.8928025 C618.813201,39.4794696 617.639868,26.7861366 616.666535,25.7061366 C616.346535,25.4928033 613.226535,26.2528032 609.679868,27.5328032 C605.693201,28.9328032 599.786535,30.0128031 593.546535,30.3328031 C583.759869,30.7728031 583.653202,30.7728031 570.213202,25.3861366 C552.253203,18.0794701 542.253203,16.1461368 527.07987,16.8928035 C516.546537,17.4261368 513.106537,18.0794701 498.053204,22.91947 C475.786538,30.1194698 467.826538,32.1594698 449.546539,35.0661364 C436.106539,37.332803 431.373206,37.5461363 406.10654,37.212803 C371.253207,36.892803 364.906541,37.652803 351.146541,43.8928028 C331.359875,53.0261359 317.813209,54.7461359 298.453209,50.8794693 C279.85321,47.1061361 258.986543,47.3328027 243.069211,51.3061359 C220.377211,56.9994691 199.622545,64.5328023 175.641212,75.932802 C165.962546,80.4528019 161.338546,81.8528018 146.06788,84.9728018 C117.353214,90.666135 109.395881,90.026135 84.7692145,79.5861352 C77.026548,76.252802 68.0998816,73.0261354 64.981215,72.4928021 C58.9598818,71.3061354 21.965216,70.9861355 18.0932161,72.0661354 C15.2972162,72.8128021 14.8678829,75.932802 16.6958828,82.1728018 C17.4478828,84.5328018 17.9865495,125.079467 18.3092161,194.546132 C18.6305495,254.346131 19.3838828,312.839463 19.9225494,324.679462 C20.4598827,336.506129 20.9972161,354.679462 20.9972161,364.999461 C20.9972161,375.332795 21.5345494,395.972794 22.2878827,410.706127 C23.5785493,438.026126 23.4705493,444.586126 19.8145494,543.519457 C19.1692161,560.946123 17.7705495,588.799456 16.5878828,605.359455 C12.9318829,658.799454 12.5012163,669.98612 11.963883,729.026119 C11.6412163,760.972785 10.887883,792.159451 10.2425497,798.279451 C9.38254969,806.55945 9.38254969,809.67945 10.3505497,810.226117 C11.855883,811.186117 30.1385492,813.23945 44.6558821,813.986117 C50.8932153,814.306117 65.197215,815.27945 76.3812147,816.132783 C113.91188,819.03945 220.270544,822.15945 244.359877,821.186117 C259.73321,820.652783 316.199875,822.79945 323.506542,824.412783 C333.946542,826.572783 332.973208,827.63945 336.199875,810.43945 C339.639875,793.119451 341.039875,789.359451 344.373208,788.932784 C350.186541,788.066118 355.453208,801.079451 355.453208,816.23945 L355.453208,823.666117 L398.253207,823.87945 C421.693206,823.986117 446.426539,823.772783 453.199872,823.346117 L465.573205,822.586117 L468.039872,810.226117 C469.333205,803.452784 471.266538,791.612784 472.239871,783.879451 C473.199871,776.239451 474.813205,766.986118 475.786538,763.439451 C477.186538,758.066118 477.933205,756.879452 480.093205,756.666118 C484.933204,755.919452 484.386538,753.866118 488.266538,794.092784 C489.226538,803.87945 490.306538,815.172784 490.626538,819.146117 C491.159871,825.706117 491.493204,826.67945 493.959871,827.532783 C498.799871,829.35945 548.47987,831.732783 602.573202,832.586116 L612.466535,832.79945 L612.466535,825.59945 Z M549.026536,844.639449 C522.133204,842.372783 492.026538,839.146116 489.666538,838.292783 C486.213204,836.99945 483.853204,833.986116 483.106538,830.11945 C481.813205,823.666117 479.986538,813.87945 479.439871,810.226117 C478.799871,806.666117 478.693205,806.786117 476.866538,813.986117 C475.893205,818.186117 474.933205,823.23945 474.933205,825.27945 C474.599871,834.306116 475.573205,834.19945 416.639873,834.746116 C388.46654,835.066116 362.653208,834.852783 359.106541,834.412783 C350.933208,833.452783 345.773208,828.826117 345.666541,822.372783 C345.559875,814.51945 344.159875,813.772784 342.759875,820.972783 C341.253208,829.466116 339.319875,831.732783 333.506542,831.732783 C331.039875,831.732783 325.986542,832.266116 322.106542,832.79945 C314.586542,833.986116 160.370546,834.412783 144.669213,833.346116 C139.614546,833.026116 121.010547,832.266116 103.265214,831.732783 C58.0985485,830.226116 34.7625491,828.826117 23.5785493,826.892783 C13.3612163,825.066117 2.07054987,820.652783 0.67188324,817.852783 C0.13454992,816.892783 -0.0801167412,780.319451 0.0265499228,736.559452 C0.241216584,661.599454 0.457216579,655.039454 3.03854985,623.106122 C8.95321637,552.33279 9.59854968,524.159457 9.27588302,345.639462 C9.27588302,300.90613 8.73721637,266.812797 8.09188305,260.692797 C7.44654974,255.092798 6.47988309,214.666132 5.94121644,170.8928 C5.29588312,127.119467 4.65188314,85.2928018 4.32788315,77.9728019 C3.79054983,64.5328023 3.79054983,64.5328023 6.69454976,61.519469 C9.59854968,58.5061358 12.1785496,57.7594691 14.0065496,59.4794691 C14.6532162,60.0128024 17.9865495,60.0128024 22.0718827,59.3728024 C25.9438826,58.8394691 37.9878823,58.2928024 48.9585487,58.1861358 L68.8532149,57.9728024 L88.639881,64.8528023 C113.805214,73.5728021 119.61188,74.1061354 142.518546,69.9061355 C154.885213,67.6528022 160.262546,66.0394689 168.327879,62.3861357 C173.919879,59.6928024 179.727879,57.3328025 181.233212,56.8928025 C182.738545,56.4661358 187.577212,54.5328025 191.987878,52.5994692 C200.482545,48.946136 224.894544,41.0928029 243.069211,36.252803 C257.266543,32.4928031 277.586543,32.2661364 296.519876,35.7194697 C306.839876,37.652803 310.493209,37.8661363 317.493209,36.9994696 C329.426542,35.7194697 331.039875,35.172803 342.546541,29.9061365 C360.399874,21.7328034 361.359874,21.6261367 399.54654,21.4128034 C430.733206,21.19947 434.599872,20.9861367 448.679872,18.3994701 C456.973205,16.8928035 472.453205,12.9194702 483.106538,9.58613699 C511.706537,0.546137215 514.066537,0.006009825 531.813203,0.006009825 C549.773203,-0.0938627688 554.293203,0.972803871 573.546536,9.146137 C584.293202,13.8794702 586.559869,14.4261369 593.439868,14.4261369 C597.733202,14.4261369 605.159868,13.4528036 610.106535,12.2661369 C615.053201,11.0794703 620.639868,10.1194703 622.586534,10.1194703 C626.773201,10.1194703 630.213201,12.3728036 629.466534,14.6394702 C629.146534,15.4928035 629.573201,20.75947 630.319867,26.3594699 C635.053201,57.3328025 634.413201,106.799468 628.493201,178.959466 C625.919868,210.359465 623.119868,240.572798 621.613201,252.626131 C620.746534,259.719464 619.573201,274.02613 618.919868,284.34613 C616.453201,326.066129 615.586535,339.519462 614.079868,359.092795 C613.226535,370.386128 612.253201,382.639461 611.933201,386.506128 C611.613201,390.386127 610.639868,402.212794 609.786535,412.852794 C607.853201,436.092793 606.013201,478.572792 606.013201,497.812791 C606.013201,505.559458 606.773201,522.439458 607.626535,535.452791 C608.493201,548.466124 609.999868,576.319456 610.853201,597.292789 C612.799868,642.346121 615.159868,682.572787 617.306534,706.439453 C618.173201,715.906119 619.133201,727.306119 619.466534,731.719452 C619.786534,736.132785 620.973201,751.186118 622.146534,765.052785 C623.333201,778.932784 624.519868,799.786117 624.946534,811.292784 C625.693201,834.092783 625.159868,838.07945 620.533201,842.47945 C618.066534,844.852783 617.413201,844.852783 589.133202,845.172783 C573.333202,845.386116 555.266536,845.172783 549.026536,844.639449" id="path430" transform="translate(316.727530, 422.627266) scale(-1, 1) rotate(-180.000000) translate(-316.727530, -422.627266) "></path>
            <path d="M540.19987,90.1768105 C539.773203,34.1501452 539.986536,27.4834787 542.35987,27.4834787 C543.31987,27.4834787 544.186536,121.57681 543.213203,126.203476 C541.066536,135.456809 540.413203,127.070143 540.19987,90.1768105" id="path432" transform="translate(541.831743, 78.575946) scale(-1, 1) rotate(-180.000000) translate(-541.831743, -78.575946) "></path>
            <path d="M504.279871,75.119663 C503.426537,71.9996631 504.613204,36.1863307 505.573204,31.5596641 C506.546537,27.3729976 508.586537,27.6929976 507.733204,31.8796641 C507.399871,33.7196641 507.079871,44.8929971 507.079871,56.6263302 C507.079871,69.9596632 506.653204,78.0263296 506.013204,78.0263296 C505.466537,78.0263296 504.613204,76.7329963 504.279871,75.119663" id="path434" transform="translate(505.961865, 53.300706) scale(-1, 1) rotate(-180.000000) translate(-505.961865, -53.300706) "></path>
            <path d="M522.893204,88.0888309 C522.466537,87.6621642 522.133204,83.9021643 522.23987,79.7021644 C522.23987,69.275498 525.79987,29.8088323 526.75987,28.9421657 C528.053203,27.6488324 527.626537,43.7821653 525.906537,66.1554981 C524.066537,89.2754975 524.066537,89.1688309 522.893204,88.0888309" id="path436" transform="translate(524.866743, 58.658623) scale(-1, 1) rotate(-180.000000) translate(-524.866743, -58.658623) "></path>
            <path d="M321.039875,57.6814973 C321.039875,56.828164 321.466542,54.3481641 321.999875,52.3081641 C322.546542,50.2681642 323.613208,44.3481643 324.266542,39.1881645 C325.773208,28.0014981 328.026542,26.1748315 326.946542,37.0414978 C325.773208,48.8681642 324.373208,55.9614974 322.653209,57.5748307 C321.253209,58.9748306 321.039875,58.9748306 321.039875,57.6814973" id="path438" transform="translate(324.134727, 44.208290) scale(-1, 1) rotate(-180.000000) translate(-324.134727, -44.208290) "></path>
            <path d="M428.253206,43.2929754 C427.066539,42.2129754 427.399873,31.8929756 428.573206,30.0529757 C429.333206,28.8796424 429.653206,29.946309 429.653206,33.8263089 C429.653206,36.8396422 429.973206,40.2796421 430.293206,41.6796421 C430.946539,43.9329753 429.759873,44.9063087 428.253206,43.2929754" id="path440" transform="translate(428.994134, 36.847362) scale(-1, 1) rotate(-180.000000) translate(-428.994134, -36.847362) "></path>
            <path d="M373.413207,47.1279959 C372.973207,44.8746626 372.866541,42.0746627 373.186541,40.8879961 C373.413207,39.7013294 373.946541,36.9146628 374.266541,34.7546629 C375.453207,27.4479964 376.853207,30.4613297 377.173207,40.8879961 C377.493207,49.7013292 377.279874,51.1013291 375.773207,51.1013291 C374.586541,51.1013291 373.839874,49.8213292 373.413207,47.1279959" id="path442" transform="translate(375.151328, 40.918206) scale(-1, 1) rotate(-180.000000) translate(-375.151328, -40.918206) "></path>
            <path d="M446.959872,67.2801817 C445.999872,64.6935151 448.253205,32.3335159 449.439872,31.0401826 C449.759872,30.7201826 450.413205,30.7201826 450.733205,31.1468493 C451.373205,31.7868493 449.226539,68.573515 448.466539,69.4268483 C448.146539,69.6401817 447.506539,68.6801817 446.959872,67.2801817" id="path444" transform="translate(448.789286, 50.134299) scale(-1, 1) rotate(-180.000000) translate(-448.789286, -50.134299) "></path>
            <path d="M222.098544,39.7004159 C222.098544,32.0737494 223.711878,29.2737495 224.787878,35.0870827 C225.754544,40.0337492 225.002544,45.8337491 223.497211,46.3804157 C222.421211,46.7004157 222.098544,44.8737491 222.098544,39.7004159" id="path446" transform="translate(223.659354, 39.197749) scale(-1, 1) rotate(-180.000000) translate(-223.659354, -39.197749) "></path>
            <path d="M294.586543,43.6367513 C293.719876,41.263418 295.119876,32.2367516 296.413209,32.2367516 C297.693209,32.2367516 297.693209,43.743418 296.306543,44.5967513 C295.653209,44.9300846 294.906543,44.4900846 294.586543,43.6367513" id="path448" transform="translate(295.839280, 38.472584) scale(-1, 1) rotate(-180.000000) translate(-295.839280, -38.472584) "></path>
            <path d="M187.685212,38.4261583 C187.685212,35.732825 188.222545,33.2661584 188.761212,32.9461584 C189.405212,32.5061584 189.835879,34.3461584 189.835879,37.6794917 C189.835879,40.6928249 189.405212,43.1594915 188.761212,43.1594915 C188.222545,43.1594915 187.685212,41.0128249 187.685212,38.4261583" id="path450" transform="translate(188.760545, 38.020620) scale(-1, 1) rotate(-180.000000) translate(-188.760545, -38.020620) "></path>
            <path d="M389.86654,36.5673072 C389.86654,32.3673073 391.373207,31.513974 392.439873,35.2739739 C393.413207,39.0339738 393.199873,40.3273071 391.479873,40.3273071 C390.399873,40.3273071 389.86654,39.1406405 389.86654,36.5673072" id="path452" transform="translate(391.442378, 36.604528) scale(-1, 1) rotate(-180.000000) translate(-391.442378, -36.604528) "></path>
            <path d="M135.313213,46.9999162 C136.38788,30.7732499 138.43188,29.4799166 138.001213,45.3865829 C137.786546,54.8532493 137.35588,57.7599159 136.173213,58.1865826 C134.882547,58.6132492 134.77588,56.7865826 135.313213,46.9999162" id="path454" transform="translate(136.534196, 46.180833) scale(-1, 1) rotate(-180.000000) translate(-136.534196, -46.180833) "></path>
            <path d="M172.953212,54.2311733 C172.091879,51.8711733 173.598546,35.2045071 174.781212,34.0178404 C175.426546,33.3778405 175.747879,37.244507 175.533212,44.4445068 C175.318546,55.2045066 174.565212,58.3245065 172.953212,54.2311733" id="path456" transform="translate(174.149173, 44.956461) scale(-1, 1) rotate(-180.000000) translate(-174.149173, -44.956461) "></path>
            <path d="M241.455877,45.6641008 C241.455877,34.0507678 243.498544,31.0374345 243.82121,42.2241009 C243.92921,46.4107675 244.03721,50.9307674 244.03721,52.2241007 C244.143877,53.517434 243.498544,54.6907673 242.853211,55.0107673 C241.778544,55.3441006 241.455877,52.9707673 241.455877,45.6641008" id="path458" transform="translate(242.752359, 45.132925) scale(-1, 1) rotate(-180.000000) translate(-242.752359, -45.132925) "></path>
            <path d="M271.999876,53.0950821 C272.85321,39.4417491 273.61321,35.0284159 275.01321,35.0284159 C275.65321,35.0284159 275.866543,36.4284158 275.439876,38.3617491 C275.119876,40.1884157 274.799876,46.7484156 274.799876,52.8817487 C274.799876,62.5617485 274.57321,64.0684151 273.066543,64.0684151 C271.466543,64.0684151 271.346543,62.8817485 271.999876,53.0950821" id="path460" transform="translate(273.644877, 49.548415) scale(-1, 1) rotate(-180.000000) translate(-273.644877, -49.548415) "></path>
            <path d="M576.013202,51.3059469 C577.093202,49.9059469 577.093202,49.4792802 575.799869,48.7192803 C573.973202,47.545947 570.959869,50.1192802 572.039869,51.8392802 C573.106536,53.4526135 574.293202,53.3459468 576.013202,51.3059469 L576.013202,51.3059469 Z M569.453202,65.8259465 C563.759869,63.4526132 558.706536,56.7859467 558.706536,51.3059469 C558.706536,47.3326136 562.573203,39.5859472 565.479869,37.6526139 C570.106536,34.6392806 574.506536,34.4259473 579.773202,36.9992806 C585.906535,39.9059471 588.813202,44.425947 588.813202,50.8792802 C588.813202,57.3326134 585.693202,62.2792799 579.893202,64.8526132 C574.826536,67.2259465 573.333202,67.3326131 569.453202,65.8259465" id="path462" transform="translate(573.759869, 51.020514) scale(-1, 1) rotate(-180.000000) translate(-573.759869, -51.020514) "></path>
            <path d="M156.283879,90.7960538 C155.423879,88.7560539 155.530546,83.916054 156.929213,70.1560543 C160.047879,39.5027218 160.799879,34.9827219 162.305213,36.5960552 C162.521213,36.8093885 161.983879,45.956055 161.015879,56.929388 C160.154546,67.8893877 159.402546,80.5827208 159.294546,85.2093873 C159.186546,93.8093871 158.326546,95.3160537 156.283879,90.7960538" id="path464" transform="translate(159.044271, 64.798901) scale(-1, 1) rotate(-180.000000) translate(-159.044271, -64.798901) "></path>
            <path d="M113.482547,57.1787277 C113.482547,52.2320611 113.805214,45.9920613 114.12788,43.2053947 C115.418547,33.8453949 116.709214,38.2587281 116.709214,52.2320611 C116.709214,63.9520608 116.493214,66.2187274 115.09588,66.2187274 C113.805214,66.2187274 113.482547,64.4987275 113.482547,57.1787277" id="path466" transform="translate(115.095880, 52.236905) scale(-1, 1) rotate(-180.000000) translate(-115.095880, -52.236905) "></path>
            <path d="M92.7265476,144.295639 C92.4038809,143.748973 91.9745476,135.682306 91.543881,126.228973 C91.2212143,116.762307 90.0385477,94.3889741 89.0705477,76.5356412 C88.1025477,58.5756416 87.6732144,43.6289753 87.9945477,43.2023087 C89.5012144,41.8023087 90.0385477,44.0689753 91.0065476,55.468975 C91.543881,61.8023082 92.7265476,75.3623079 93.5878809,85.3623076 C96.1678809,114.61564 95.6305475,149.242306 92.7265476,144.295639" id="path468" transform="translate(91.568085, 93.802028) scale(-1, 1) rotate(-180.000000) translate(-91.568085, -93.802028) "></path>
            <path d="M62.7225484,69.0951018 C63.153215,65.3351019 62.185215,60.9217687 60.7878817,60.9217687 C59.2812151,60.9217687 58.4212151,64.8017686 59.2812151,68.9884351 C60.0345484,73.4017684 62.185215,73.508435 62.7225484,69.0951018 Z M52.5065486,84.4817681 C45.9465488,82.5484348 40.4612156,72.5351017 40.3545489,62.215102 C40.3545489,57.0551021 40.7852156,56.0817688 44.5478821,52.0017689 C48.6345487,47.6951023 48.9585487,47.481769 56.7012152,47.161769 C63.5838817,46.841769 64.981215,47.0551024 68.3158815,49.3084356 C73.7998814,52.9751022 75.8438814,57.8017687 75.8438814,67.1617685 C75.8438814,76.8417683 73.7998814,81.5751015 68.8532149,83.9351014 C64.981215,85.7751014 57.8838818,85.9884347 52.5065486,84.4817681" id="path470" transform="translate(58.099215, 66.261758) scale(-1, 1) rotate(-180.000000) translate(-58.099215, -66.261758) "></path>
            <path d="M24.6545493,306.360815 C24.3305493,305.494148 24.6545493,292.054149 25.2985493,276.467482 C25.8372159,260.867483 26.3745493,220.760817 26.4825493,187.307485 C26.4825493,118.587486 27.5572159,75.7874875 29.3852159,72.6674875 C30.7838825,70.0941543 30.0305492,244.947483 28.5252159,278.614149 C27.8798826,290.654149 27.4492159,302.160815 27.4492159,304.107482 C27.4492159,307.760815 25.7292159,309.040815 24.6545493,306.360815" id="path472" transform="translate(27.326096, 190.214615) scale(-1, 1) rotate(-180.000000) translate(-27.326096, -190.214615) "></path>
            <path d="M587.306535,274.796989 C586.986535,274.050322 586.559869,268.130322 586.226535,261.570322 C585.799869,255.116989 584.079869,239.850323 582.253202,227.703657 C579.666535,210.063657 578.919869,200.916991 578.493202,181.450324 C578.279869,168.116991 577.199869,149.836992 576.226536,140.810325 C574.613202,125.636992 574.613202,122.303659 576.119869,101.236993 C577.519869,80.7969936 578.279869,75.6369937 579.453202,77.250327 C579.666535,77.4636604 579.346535,87.5703268 578.813202,99.7303265 C578.053202,117.356993 578.173202,125.103659 579.559869,138.436992 C580.426535,147.583659 581.506535,166.290325 581.719869,179.836991 C582.039869,193.503657 582.999869,209.95699 583.973202,216.410324 C589.026535,252.970323 590.959868,276.090322 588.919869,276.090322 C588.279869,276.090322 587.519869,275.450322 587.306535,274.796989" id="path474" transform="translate(582.361667, 176.532702) scale(-1, 1) rotate(-180.000000) translate(-582.361667, -176.532702) "></path>
            <path d="M552.893203,112.210632 C551.813203,109.317298 552.146536,78.3439658 553.319869,78.3439658 C553.866536,78.3439658 554.399869,85.5439656 554.613203,95.3306321 C554.933203,111.357298 554.399869,116.197298 552.893203,112.210632" id="path476" transform="translate(553.470133, 95.939523) scale(-1, 1) rotate(-180.000000) translate(-553.470133, -95.939523) "></path>
            <path d="M398.999873,267.919877 C400.079873,261.146544 398.999873,257.266544 392.759873,245.759877 C389.759874,240.173211 384.053207,229.519878 380.18654,222.106545 C376.199874,214.679878 373.186541,208.226545 373.413207,207.799878 C374.586541,205.759878 390.719873,223.933211 396.533207,233.826544 L399.319873,238.559878 L401.159873,234.906544 C402.22654,232.973211 403.30654,228.453211 403.519873,224.799878 C403.94654,218.879878 403.733206,217.693211 400.18654,211.346545 C385.98654,185.759879 384.479874,180.159879 394.26654,189.839879 C397.493207,193.066545 401.799873,197.693212 403.62654,200.066545 C406.959873,204.253212 407.06654,204.253212 407.06654,201.453212 C407.06654,196.079879 404.70654,187.159879 401.479873,180.813212 C397.493207,173.066546 390.399873,165.319879 376.959874,154.35988 C356.199874,137.466547 344.373208,125.106547 334.693208,110.479881 C329.746542,102.946548 323.946542,95.3198811 321.893209,93.4932145 C318.133209,90.1465479 317.813209,90.1465479 312.973209,91.2265479 C308.346542,92.3065479 306.946542,93.4932145 298.773209,102.946548 C293.719876,108.759881 288.986543,113.919881 288.239876,114.346547 C287.479876,114.773214 280.17321,121.11988 272.106543,128.546547 C238.014544,159.413213 236.723877,160.919879 226.830544,180.813212 C222.314544,190.053212 221.775878,191.666545 221.883878,198.119879 C221.990544,201.999878 222.206544,205.333212 222.421211,205.653212 C222.743878,205.866545 223.926544,204.573212 225.109211,202.639878 C226.293211,200.813212 232.099877,194.253212 238.014544,188.226545 C248.33321,177.799879 257.586543,171.239879 259.41321,172.959879 C260.919877,174.573212 255.439877,182.746546 245.65321,193.613212 C238.122544,201.999878 234.789211,206.626545 231.023877,214.359878 C228.443878,219.959878 226.399878,224.693211 226.722544,224.906545 C226.937211,225.226545 229.626544,221.893211 232.637211,217.479878 C238.445211,208.986545 246.61321,200.066545 247.586544,201.026545 C247.906544,201.346545 246.506544,203.506545 244.466544,205.866545 C242.315877,208.119878 238.122544,213.826545 235.003877,218.453211 C231.885211,223.173211 228.335878,228.026544 227.153211,229.306544 C225.431878,231.239878 225.217211,232.533211 225.862544,236.733211 L226.615878,241.786544 L229.410544,237.479878 C235.971877,227.906544 249.306544,214.466545 250.81321,216.079878 C251.13321,216.399878 248.226544,219.959878 244.251877,223.933211 C240.273211,228.026544 234.895877,234.466544 232.207877,238.346544 C227.905211,244.586544 227.475878,245.653211 228.550544,248.346544 L229.626544,251.253211 L235.971877,242.866544 C243.283877,233.293211 264.039877,212.213212 264.039877,214.466545 C264.039877,215.226545 259.626543,220.599878 254.25321,226.186545 C243.177211,237.693211 231.777211,252.533211 231.777211,255.226544 C231.777211,256.306544 232.314544,257.81321 232.851877,258.666544 C233.821211,260.066544 234.143877,260.066544 235.110544,258.346544 C237.583877,254.146544 249.199877,241.359877 254.146544,237.479878 C256.946543,235.333211 265.759877,226.839878 273.719876,218.773211 C281.679876,210.706545 289.853209,203.279878 291.786543,202.319878 C297.813209,199.199879 311.253209,196.293212 319.319875,196.293212 C325.119875,196.293212 328.239875,196.946545 332.333208,198.879879 C338.999875,201.999878 348.786541,212.106545 352.759874,220.066545 C357.919874,230.173211 365.013207,238.773211 376.853207,248.986544 C386.533207,257.479877 396.319873,268.879877 396.319873,271.786543 C396.319873,272.33321 396.74654,272.65321 397.279873,272.65321 C397.933207,272.65321 398.679873,270.49321 398.999873,267.919877 L398.999873,267.919877 Z M445.466539,269.426543 C451.266539,266.519877 456.973205,263.29321 458.146538,262.319877 C460.306538,260.706544 460.306538,260.706544 457.826538,258.666544 C449.973205,252.213211 433.626539,249.853211 418.573206,252.973211 C408.679873,255.01321 406.42654,256.626544 411.90654,257.706544 L415.133206,258.346544 L412.22654,259.09321 C410.293206,259.639877 409.213206,260.706544 409.213206,261.89321 C409.213206,264.039877 409.86654,264.37321 419.226539,266.199877 C422.559873,266.839877 425.346539,267.919877 425.346539,268.559877 C425.346539,269.106543 424.066539,269.319877 422.453206,268.999877 C414.919873,267.599877 409.213206,267.05321 409.213206,268.026543 C409.213206,269.53321 425.346539,274.586543 430.399872,274.69321 C433.733206,274.799877 437.506539,273.506543 445.466539,269.426543 L445.466539,269.426543 Z M319.319875,300.826543 C332.546542,288.679876 348.026541,283.946543 372.653207,284.799876 C380.613207,285.01321 388.039874,285.666543 389.10654,286.09321 C392.013207,287.279876 391.479873,283.839876 387.279874,275.226543 C384.26654,268.879877 382.333207,266.519877 375.666541,261.039877 C361.679874,249.639877 351.679874,238.026544 346.733208,227.586544 C341.573208,216.733211 338.559875,213.173212 331.359875,209.519878 C326.519875,207.053212 325.119875,206.839878 316.839875,207.373212 C300.599876,208.226545 297.813209,209.733212 281.679876,225.759878 C274.039876,233.506544 262.959877,244.146544 257.266543,249.306544 C247.159877,258.559877 242.423877,265.439877 239.842544,274.586543 C239.197211,276.946543 239.305211,277.05321 241.670544,276.199877 C245.327877,274.906543 267.05321,275.33321 272.639876,276.839877 C275.33321,277.599877 282.106543,280.386543 287.693209,283.186543 C295.973209,287.279876 299.306542,289.639876 305.986542,296.413209 C310.386542,300.933209 314.266542,304.693209 314.479875,304.799876 C314.693209,304.799876 316.839875,303.079876 319.319875,300.826543 L319.319875,300.826543 Z M453.959872,314.906542 C453.639872,313.839876 453.093205,311.573209 452.666539,309.746542 C450.293205,299.213209 439.013206,289.746543 419.759873,282.33321 L414.053206,280.066543 L417.279873,282.759876 C419.119873,284.266543 419.866539,285.439876 419.119873,285.559876 C416.959873,285.559876 408.253206,280.279877 407.06654,278.239877 C406.533206,277.17321 405.999873,276.946543 405.999873,277.599877 C405.999873,278.346543 410.719873,282.866543 416.533206,287.706543 C427.066539,296.626543 429.866539,299.746543 425.239873,297.386543 C421.373206,295.346543 414.70654,290.066543 408.893206,284.586543 C403.94654,279.85321 403.733206,279.746543 404.919873,282.866543 C409.54654,295.239876 425.133206,307.919876 442.559872,313.306542 C446.426539,314.586542 450.293205,315.773209 451.159872,316.093209 C454.066539,316.959876 454.493205,316.746542 453.959872,314.906542 Z M348.346541,324.373209 C356.093208,320.613209 370.186541,308.893209 369.639874,306.626543 C369.533207,305.879876 372.226541,303.946543 375.666541,302.333209 C379.10654,300.719876 383.093207,298.453209 384.479874,297.279876 L387.173207,295.119876 L383.94654,295.879876 C380.399874,296.733209 358.133208,304.053209 355.239874,305.346543 C354.053208,305.879876 353.293208,305.773209 353.293208,305.013209 C353.293208,303.413209 359.959874,300.173209 369.213207,297.386543 C373.413207,296.093209 376.959874,294.799876 376.959874,294.479876 C376.959874,292.01321 349.319875,299.319876 342.866541,303.413209 C340.719875,304.799876 340.399875,304.799876 340.399875,303.293209 C340.399875,301.573209 344.053208,299.426543 353.733208,295.666543 C361.146541,292.866543 359.319874,292.439876 347.919875,294.266543 C340.173208,295.453209 332.973208,299.639876 324.266542,307.706542 C316.413209,315.026542 314.693209,315.346542 307.919876,310.079876 C304.799876,307.599876 299.853209,303.293209 296.839876,300.613209 C291.359876,295.666543 276.519876,286.41321 271.57321,285.01321 C268.239877,284.05321 268.239877,284.05321 278.559876,291.786543 C288.559876,299.319876 295.333209,305.239876 293.079876,304.586543 C292.213209,304.373209 287.159876,300.933209 281.999876,296.959876 C271.57321,289.106543 264.359877,285.119876 258.666543,284.05321 C255.33321,283.506543 255.866544,284.05321 262.959877,288.679876 C271.13321,293.946543 277.799876,300.066543 276.73321,301.253209 C276.399876,301.573209 273.186543,299.533209 269.626543,296.626543 C262.319877,290.826543 252.959877,285.01321 248.986544,283.946543 C247.37321,283.506543 248.439877,284.586543 251.666544,286.626543 C257.37321,290.29321 267.159877,299.213209 270.599876,304.159876 C274.57321,309.533209 270.81321,307.173209 262.746543,299.213209 C258.45321,294.906543 252.639877,290.17321 250.05321,288.679876 C246.186544,286.519876 248.986544,289.746543 263.61321,304.479876 C281.999876,322.973209 281.999876,322.973209 289.746543,325.346542 C298.239876,327.919875 304.799876,327.813209 308.026542,324.919875 C311.039875,322.119875 314.693209,322.333209 321.573209,325.559875 C330.386542,329.759875 338.239875,329.426542 348.346541,324.373209 L348.346541,324.373209 Z M395.453207,410.199873 C395.02654,391.479874 395.239873,389.54654 397.06654,387.50654 C398.679873,385.786541 399.86654,385.466541 403.62654,385.999874 C408.253206,386.639874 412.119873,385.466541 413.733206,382.986541 C415.239873,380.839874 414.599873,371.159874 412.559873,364.066541 C410.18654,355.559875 406.319873,347.826541 399.653207,337.706542 L394.70654,330.186542 L394.373207,315.453209 C394.159873,307.279876 393.733207,300.613209 393.413207,300.613209 C392.22654,300.613209 382.653207,308.133209 379.10654,311.906542 C370.506541,320.933209 356.519874,330.293209 344.693208,334.706542 C336.093208,338.039875 329.319875,337.599875 321.039875,333.413209 L315.333209,330.506542 L310.933209,332.973209 C305.226542,336.199875 296.079876,336.199875 286.186543,332.866542 C277.266543,329.973209 273.186543,326.853209 257.479877,311.253209 C250.706544,304.479876 243.177211,297.386543 240.810544,295.559876 L236.401211,292.01321 L235.110544,300.399876 C232.207877,318.573209 229.841211,326.426542 225.647878,331.039875 C216.506545,341.159875 209.946545,362.119874 210.483878,379.119874 C210.806545,388.14654 210.806545,388.253207 213.710545,388.573207 C216.183878,388.90654 217.151878,388.253207 218.873211,385.239874 C221.667878,380.506541 224.787878,379.653207 227.690544,382.559874 C229.841211,384.706541 229.841211,385.679874 229.410544,404.493207 L228.873211,424.06654 L234.358544,420.839873 C248.33321,412.559873 259.519877,408.14654 277.05321,403.853207 C302.319876,397.719874 316.839875,398.039874 343.079875,405.46654 C352.653208,408.253207 383.733207,422.773206 390.933207,427.933206 C392.98654,429.439873 394.919873,430.626539 395.239873,430.733206 C395.559873,430.733206 395.559873,421.479873 395.453207,410.199873 L395.453207,410.199873 Z M323.186542,472.239872 C323.186542,471.386538 323.506542,469.986538 323.826542,469.013205 C324.373208,467.626538 323.613208,467.293205 320.066542,467.293205 C315.879875,467.293205 315.653209,467.506538 315.653209,470.519872 C315.653209,473.533205 315.986542,473.746538 319.426542,473.746538 C321.999875,473.746538 323.186542,473.213205 323.186542,472.239872 L323.186542,472.239872 Z M311.573209,470.626538 C311.999875,467.839872 311.679876,467.399872 308.879876,466.866539 C302.533209,465.573205 301.679876,465.906539 301.679876,469.986538 C301.679876,473.746538 301.679876,473.746538 306.413209,473.746538 C310.813209,473.746538 311.146542,473.533205 311.573209,470.626538 Z M298.453209,471.066538 C298.453209,467.399872 298.346542,467.293205 294.253209,467.293205 C290.493209,467.293205 290.066543,467.506538 290.599876,469.773205 C291.573209,474.399872 291.999876,474.826538 295.226543,474.826538 C298.239876,474.826538 298.453209,474.506538 298.453209,471.066538 L298.453209,471.066538 Z M335.013208,472.133205 C335.013208,468.906538 334.693208,468.373205 332.439875,468.373205 C331.039875,468.373205 329.106542,468.053205 328.133208,467.733205 C326.733208,467.186539 326.413208,467.839872 326.413208,470.839872 C326.413208,473.959872 326.839875,474.719872 328.893208,475.146538 C334.586542,476.226538 335.013208,476.119872 335.013208,472.133205 L335.013208,472.133205 Z M287.266543,475.906538 C288.559876,475.906538 288.666543,475.039872 288.133209,471.919872 C287.693209,469.666538 287.266543,467.733205 287.159876,467.506538 C287.053209,467.399872 285.439876,467.626538 283.613209,467.946538 C280.599876,468.586538 280.279876,469.013205 280.81321,471.493205 C281.89321,476.653205 282.319876,477.186538 284.039876,476.546538 C285.013209,476.226538 286.413209,475.906538 287.266543,475.906538 L287.266543,475.906538 Z M276.519876,477.413205 C278.45321,476.866538 278.666543,476.226538 278.13321,473.426538 C277.69321,471.493205 277.05321,470.093205 276.626543,470.306538 C276.186543,470.413205 275.01321,470.519872 274.039876,470.519872 C270.386543,470.519872 269.199877,472.026538 270.386543,475.146538 C271.57321,478.159872 272.53321,478.479872 276.519876,477.413205 L276.519876,477.413205 Z M347.173208,471.599872 C346.733208,471.173205 344.479875,470.413205 342.333208,470.093205 C338.239875,469.346538 338.239875,469.346538 338.239875,473.106538 C338.239875,476.439872 338.559875,476.866538 342.333208,477.733205 C346.093208,478.693205 346.306541,478.586538 347.173208,475.573205 C347.706541,473.746538 347.706541,472.026538 347.173208,471.599872 Z M267.05321,479.346538 C269.306543,477.839872 266.839877,472.679872 264.146543,473.426538 C262.319877,473.853205 262.21321,474.399872 263.17321,477.079872 C264.359877,480.413205 264.786543,480.746538 267.05321,479.346538 L267.05321,479.346538 Z M359.213208,478.479872 C359.533208,476.333205 359.746541,474.506538 359.533208,474.293205 C359.319874,474.079872 357.493208,473.639872 355.346541,473.213205 C351.906541,472.573205 351.359874,472.786538 350.826541,475.039872 C349.639875,479.239872 349.959875,479.986538 353.079874,481.066538 C357.813208,482.786538 358.346541,482.573205 359.213208,478.479872 Z M260.81321,479.346538 C260.81321,475.906538 259.09321,474.506538 256.29321,475.466538 C253.719877,476.439872 253.719877,476.546538 255.119877,479.986538 C256.29321,482.999871 256.839877,483.319871 258.666543,482.359871 C259.839877,481.706538 260.81321,480.413205 260.81321,479.346538 L260.81321,479.346538 Z M374.479874,483.973205 C375.666541,480.306538 375.559874,480.093205 372.226541,478.693205 C363.519874,475.039872 361.906541,475.466538 361.906541,481.279871 C361.906541,483.533205 362.759874,484.293205 367.066541,485.693205 C369.853207,486.759871 372.439874,487.519871 372.759874,487.626538 C373.079874,487.733205 373.946541,486.013205 374.479874,483.973205 L374.479874,483.973205 Z M253.279877,484.613205 C253.279877,483.426538 251.026544,476.973205 250.599877,476.973205 C250.386544,476.973205 248.986544,477.413205 247.37321,478.053205 L244.574544,479.133205 L246.826544,483.426538 C248.77321,487.199871 249.306544,487.626538 251.13321,486.653205 C252.319877,486.013205 253.279877,485.146538 253.279877,484.613205 L253.279877,484.613205 Z M383.733207,487.199871 C385.559874,483.426538 385.559874,483.319871 382.759874,482.359871 C378.679874,480.746538 378.359874,480.959871 377.493207,485.146538 C377.06654,487.946538 377.279874,489.346538 378.253207,489.986538 C380.719874,491.599871 381.90654,491.066538 383.733207,487.199871 L383.733207,487.199871 Z M244.682544,491.493205 C245.65321,490.306538 245.542544,488.919871 244.03721,485.039871 C241.133211,477.186538 238.122544,480.199872 240.379877,488.693205 C241.670544,493.426538 242.531877,494.079871 244.682544,491.493205 Z M210.054545,483.213205 C215.753211,480.853205 225.647878,476.759872 231.991877,474.079872 C240.273211,470.746538 247.586544,468.586538 258.346543,466.653205 C266.519877,465.146539 276.079876,463.106539 279.626543,462.133205 C284.906543,460.626539 290.599876,460.306539 310.279875,460.306539 C336.519875,460.413205 352.653208,462.346539 370.079874,467.626538 C374.799874,469.133205 380.719874,470.839872 383.413207,471.599872 C391.039873,473.639872 425.999873,486.013205 436.319872,490.306538 C441.479872,492.466538 446.106539,494.186538 446.746539,494.186538 C448.039872,494.186538 418.253206,464.399872 408.679873,456.013205 C398.893207,447.506539 380.18654,434.493206 369.106541,428.586539 C357.706541,422.559873 339.106541,415.573206 324.266542,411.813207 C310.493209,408.373207 298.773209,408.373207 282.426543,412.02654 C245.65321,420.199873 219.839878,439.666539 198.117212,475.573205 C195.858545,479.239872 191.879878,485.146538 189.298545,488.693205 L184.459879,495.253204 L191.987878,491.386538 C196.181212,489.239871 204.246545,485.573205 210.054545,483.213205 L210.054545,483.213205 Z M487.613204,494.719871 C491.599871,490.093205 492.453204,486.973205 491.599871,480.639872 C488.266538,455.573205 459.759872,428.693206 417.826539,410.839873 C412.773206,408.693207 407.613206,406.213207 406.319873,405.359873 C404.053206,403.959873 403.839873,403.959873 403.839873,405.999873 C403.839873,407.18654 405.02654,408.693207 406.853206,409.653207 C409.86654,411.159873 415.559873,416.759873 414.173206,416.759873 C413.733206,416.759873 411.58654,415.573206 409.439873,414.06654 C404.493206,410.62654 403.839873,410.733207 403.839873,414.38654 C403.839873,416.533206 404.70654,417.82654 406.959873,419.22654 C416.959873,425.14654 433.093206,438.266539 430.293206,438.266539 C429.973206,438.266539 424.173206,434.599873 417.386539,430.199873 C410.613206,425.78654 404.70654,422.133206 404.38654,422.133206 C404.053206,422.133206 403.839873,423.853206 403.839873,425.893206 C403.839873,428.479873 404.38654,429.653206 405.453206,429.653206 C409.439873,429.653206 442.559872,457.293205 442.559872,460.626539 C442.559872,461.813205 441.373206,461.279872 438.573206,458.586539 C429.759873,450.306539 406.853206,432.879873 404.70654,432.879873 C401.90654,432.879873 404.813206,437.399873 411.053206,442.559872 C414.919873,445.786539 424.493206,455.146539 432.239872,463.319872 C455.679872,487.946538 469.653205,498.373204 479.759871,498.479871 C483.639871,498.479871 484.826538,497.946538 487.613204,494.719871 L487.613204,494.719871 Z M164.241212,498.919871 C171.125212,495.479871 175.855879,489.559871 196.826545,458.586539 C201.019878,452.453206 207.579878,443.959872 211.666545,439.773207 C216.935878,434.173206 218.873211,431.266539 218.873211,429.119873 L218.873211,426.213206 L214.355878,429.773207 C211.774545,431.706539 204.569211,438.373206 198.225212,444.613206 C191.126545,451.493206 186.610545,455.146539 186.610545,454.066539 C186.610545,451.706539 206.719878,430.839873 213.494545,426.319873 C217.689211,423.42654 218.873211,422.02654 218.873211,419.759873 C218.873211,418.039873 218.657211,416.759873 218.334544,416.759873 C217.366544,416.759873 206.182545,425.14654 199.837212,430.519873 C193.277212,435.999873 192.309212,434.933206 198.009212,428.586539 C202.526545,423.533206 215.538545,413.533207 217.581211,413.533207 C218.226544,413.533207 218.873211,412.559873 218.873211,411.26654 C218.873211,409.013207 218.442544,409.013207 213.279878,412.66654 C208.763878,415.78654 209.731878,413.093207 214.570545,408.90654 C218.442544,405.679873 220.055878,402.773207 218.119878,402.773207 C216.721211,402.773207 207.258545,408.799873 196.289212,416.639873 C190.051879,421.159873 179.189212,430.413206 172.199879,437.186539 C146.06788,462.346539 136.49588,480.639872 141.981213,494.826538 C145.206546,503.213204 152.950546,504.613204 164.241212,498.919871 L164.241212,498.919871 Z M297.693209,576.133202 C298.666542,575.266536 301.253209,571.399869 303.293209,567.639869 C307.373209,560.426536 311.146542,557.626536 316.733209,557.626536 C321.786542,557.626536 325.439875,560.106536 331.039875,567.199869 C337.066541,574.733202 340.066541,576.026536 345.346541,573.226536 C352.013208,569.679869 364.159874,548.27987 372.759874,525.053204 C376.533207,514.826537 379.42654,502.679871 378.359874,501.706538 C376.093207,499.666538 340.613208,486.439871 330.826542,483.866538 C321.146542,481.386538 318.239875,481.066538 309.853209,481.599871 C288.346543,482.999871 267.05321,487.946538 256.186544,494.079871 C245.542544,499.986538 244.574544,500.959871 245.219877,504.399871 C245.542544,506.119871 246.186544,507.946537 246.61321,508.373204 C247.159877,508.919871 251.45321,507.093204 256.29321,504.293204 C268.559877,497.413204 269.626543,498.919871 257.69321,506.439871 C252.319877,509.773204 247.906544,512.999871 247.906544,513.319871 C247.906544,513.759871 248.33321,514.719871 248.879877,515.479871 C249.519877,516.666537 251.13321,516.119871 255.759877,513.106537 C261.999877,509.133204 262.959877,508.706537 262.959877,510.106537 C262.959877,510.533204 260.066543,512.679871 256.506544,515.039871 C252.959877,517.306537 250.279877,519.453204 250.599877,519.999871 C250.81321,520.426537 251.559877,522.03987 252.21321,523.653204 L253.279877,526.666537 L258.01321,523.866537 C263.066543,520.853204 264.039877,520.639871 264.039877,521.933204 C264.039877,522.35987 261.89321,524.07987 259.306543,525.693204 L254.466544,528.706537 L255.97321,532.786537 C258.346543,539.453203 260.599877,543.546537 268.666543,554.946536 C280.919876,572.253203 281.346543,572.799869 286.413209,576.026536 C291.573209,579.253202 294.039876,579.359869 297.693209,576.133202 L297.693209,576.133202 Z M281.999876,586.453202 C274.146543,582.146536 267.906543,575.373202 257.479877,559.67987 C244.251877,540.106537 236.401211,520.213204 229.195878,488.479871 L228.550544,485.573205 L223.389211,488.159871 C220.593211,489.559871 214.247878,492.253205 209.193211,494.186538 C204.138545,496.119871 196.826545,499.559871 192.955878,501.933204 C171.985212,514.186537 150.261213,517.839871 139.829213,510.639871 C133.054547,505.906538 130.15188,499.026538 130.15188,487.733205 C130.15188,476.973205 132.194547,470.093205 138.32388,459.559872 C144.238546,449.559872 151.229213,441.053206 161.445213,431.706539 C169.618546,424.173206 195.213212,404.279873 202.203878,399.973207 C204.031878,398.90654 205.645211,397.933207 205.859878,397.719874 C206.074545,397.613207 204.999878,395.999874 203.493212,394.173207 C198.009212,387.719874 198.117212,369.333208 203.817211,351.693208 C208.441211,337.493208 211.559878,331.586542 216.506545,327.493209 C220.593211,324.266542 220.701211,324.053209 222.421211,312.119876 C223.389211,305.559876 224.787878,295.986543 225.431878,290.93321 C225.970544,285.879876 227.045211,279.959877 227.582544,277.81321 C228.550544,274.05321 228.227878,273.079877 223.819878,265.546544 C221.130544,260.93321 218.119878,253.933211 217.043878,249.959877 L215.215878,242.639877 L209.193211,240.386544 C205.967878,239.093211 197.686545,235.866544 190.911878,233.399878 C184.137212,230.813211 175.855879,227.479878 172.522546,226.079878 C146.282546,214.359878 103.265214,179.946546 90.4692143,160.586546 C83.9078812,150.693213 78.3172146,125.31988 82.6185479,125.31988 C84.6612145,125.31988 87.5652144,129.733214 94.0172142,142.306547 C98.7492141,151.453213 101.437214,155.106546 109.610547,163.386546 C121.54788,175.546546 144.777213,194.679879 158.649213,203.826545 C170.263879,211.346545 178.651879,215.759878 192.417212,221.466545 C197.686545,223.613211 204.461211,226.733211 207.473211,228.346544 C210.483878,229.959878 213.279878,231.359878 213.602545,231.573211 C214.247878,231.786544 215.753211,224.039878 215.861211,219.959878 C215.861211,219.093211 215.322545,214.039878 214.570545,208.666545 C212.311878,192.213212 213.173211,187.479879 220.807878,172.319879 C228.873211,156.39988 235.863877,146.933213 246.506544,137.35988 C251.026544,133.386547 257.906543,127.253214 261.786543,123.706547 C265.65321,120.053214 271.57321,114.893214 274.906543,112.199881 C278.239876,109.399881 284.146543,103.919881 288.239876,100.039881 C292.319876,96.0665478 298.986542,90.2665479 303.186542,87.0398813 C318.986542,75.1998816 325.439875,78.1065482 342.973208,105.319881 C351.679874,118.653214 365.666541,133.173214 386.639874,150.586546 C405.66654,166.293213 411.58654,175.213212 414.38654,192.639879 C415.78654,201.026545 415.78654,203.826545 414.813206,207.373212 C413.413206,212.106545 412.439873,235.013211 413.62654,235.013211 C414.053206,235.013211 421.053206,232.319878 429.226539,228.986544 C445.239872,222.533211 459.013205,215.653211 471.053205,207.906545 C475.253205,205.226545 482.559871,201.026545 487.293204,198.559879 C499.013204,192.533212 512.893204,181.239879 519.453204,172.426546 C522.466537,168.439879 526.43987,161.133213 528.47987,156.293213 C535.466537,139.293213 541.813203,126.293214 542.99987,126.71988 C543.63987,126.933214 544.826536,128.43988 545.693203,130.15988 C546.973203,132.733214 546.973203,134.346547 545.906536,139.83988 C544.07987,148.546546 536.866537,167.479879 532.573203,174.679879 C524.506537,188.226545 509.559871,200.919878 489.986538,210.706545 C483.746538,213.826545 475.786538,218.133211 472.453205,220.279878 C465.466538,224.799878 450.626539,232.426544 440.399872,236.626544 C436.533206,238.239878 433.306539,239.639878 433.093206,239.853211 C432.879872,239.959878 436.533206,241.026544 441.159872,241.999877 C456.319872,245.333211 467.826538,252.213211 470.626538,259.426544 C472.666538,264.906544 466.866538,270.826543 452.666539,277.706543 C447.933205,279.959877 443.959872,281.89321 443.626539,282.106543 C443.306539,282.33321 444.066539,282.97321 445.239872,283.73321 C449.226539,285.879876 457.399872,294.266543 459.119872,297.706543 C461.373205,302.653209 464.493205,319.213209 463.639872,322.439875 C463.093205,324.919875 462.346538,325.239875 456.106539,325.879875 C452.133205,326.306542 446.853205,326.093209 443.413206,325.453209 C431.479872,322.973209 416.10654,313.733209 406.74654,303.413209 L402.773207,298.999876 L403.413207,313.519876 C404.159873,327.493209 404.26654,328.146542 407.933206,334.266542 C416.533206,349.106541 421.159873,360.506541 422.346539,370.293208 C424.279873,385.133207 422.013206,391.26654 413.093206,395.359874 C410.293206,396.639874 409.439873,397.399874 410.82654,397.399874 C416.74654,397.399874 455.786539,419.013206 470.733205,430.413206 C489.879871,445.039872 503.106537,467.293205 503.213204,485.039871 C503.213204,492.146538 501.599871,496.013204 496.226538,502.253204 C492.133204,506.879871 481.919871,510.319871 472.453205,510.319871 C465.573205,510.319871 444.066539,505.266538 434.706539,501.493204 C422.013206,496.333204 395.773207,486.973205 395.133207,487.306538 C394.70654,487.519871 394.159873,490.199871 393.733207,493.319871 C392.54654,502.039871 388.999874,516.439871 385.98654,524.83987 C381.479874,536.87987 364.053207,568.706536 357.173208,577.306536 C352.653208,583.013202 343.839875,587.093202 338.133208,586.239869 C331.359875,585.159869 328.026542,582.906536 322.653209,575.919869 C319.853209,572.253203 317.159875,569.466536 316.519875,569.679869 C315.986542,569.893203 313.933209,572.906536 312.106542,576.453202 C307.266542,585.373202 302.213209,589.146535 294.359876,589.573202 C289.093209,589.893202 287.373209,589.466535 281.999876,586.453202 L281.999876,586.453202" id="path478" transform="translate(313.894426, 335.047475) scale(-1, 1) rotate(-180.000000) translate(-313.894426, -335.047475) "></path>
            <path d="M304.146542,326.348441 C303.506542,325.588441 302.759876,320.108442 302.426542,314.188442 C301.999876,307.961775 300.919876,300.961775 299.746542,297.415109 C295.226543,284.721776 295.759876,278.161776 301.146542,278.161776 C306.199876,278.161776 312.546542,292.361776 312.319875,303.655109 C312.213209,315.268442 310.813209,325.588441 309.213209,326.561775 C306.946542,327.961775 305.333209,327.855108 304.146542,326.348441" id="path480" transform="translate(304.510986, 302.855092) scale(-1, 1) rotate(-180.000000) translate(-304.510986, -302.855092) "></path>
            <path d="M348.999875,290.225008 C340.066541,288.505008 338.026541,287.318342 338.453208,284.198342 C339.106541,280.118342 341.573208,279.691675 354.586541,281.091675 C367.279874,282.585009 371.586541,284.198342 371.586541,287.758342 C371.586541,292.265008 363.733207,293.131675 348.999875,290.225008" id="path482" transform="translate(354.993486, 286.140042) scale(-1, 1) rotate(-180.000000) translate(-354.993486, -286.140042) "></path>
            <path d="M249.626544,291.84051 C247.05321,289.80051 247.799877,286.453844 251.13321,284.84051 C254.57321,283.240511 271.026543,281.080511 276.399876,281.507177 C281.57321,281.947177 284.466543,285.493844 281.786543,288.067177 C279.306543,290.653844 273.399876,291.947177 261.89321,292.693844 C253.93321,293.24051 251.239877,293.013844 249.626544,291.84051" id="path484" transform="translate(265.444735, 287.214460) scale(-1, 1) rotate(-180.000000) translate(-265.444735, -287.214460) "></path>
            <path d="M400.613207,311.554101 C398.78654,302.834101 398.679873,293.914101 400.293207,293.367435 C401.159873,293.047435 402.54654,294.874101 403.839873,297.887434 C406.42654,303.914101 407.933206,311.980767 406.319873,311.007434 C405.559873,310.580767 404.813206,311.874101 404.493206,314.020767 C403.413207,319.500767 402.119873,318.647434 400.613207,311.554101" id="path486" transform="translate(403.072238, 305.457922) scale(-1, 1) rotate(-180.000000) translate(-403.072238, -305.457922) "></path>
            <path d="M219.409211,318.461237 C219.087878,317.927904 218.765211,313.847904 218.657211,309.434571 C218.442544,300.727904 220.162544,296.634571 222.635878,299.327904 C224.571878,301.367904 223.497211,319.541237 221.453211,319.541237 C220.701211,319.541237 219.839878,319.11457 219.409211,318.461237" id="path488" transform="translate(221.145474, 309.024823) scale(-1, 1) rotate(-180.000000) translate(-221.145474, -309.024823) "></path>
            <path d="M315.119875,395.324246 C306.839876,394.897579 298.346542,394.684246 296.306543,395.004246 C291.573209,395.537579 289.519876,394.364246 290.066543,391.030913 C290.706543,386.617579 294.479876,385.537579 308.133209,386.297579 C330.066542,387.257579 338.679875,389.417579 338.026541,393.817579 C337.599875,396.404246 335.986542,396.510912 315.119875,395.324246" id="path490" transform="translate(314.020671, 391.062993) scale(-1, 1) rotate(-180.000000) translate(-314.020671, -391.062993) "></path>
            <path d="M223.174544,499.950194 C223.174544,496.936861 244.359877,473.710195 247.159877,473.710195 C247.69321,473.710195 244.359877,477.790195 239.519877,482.736861 C234.789211,487.683528 229.626544,493.710195 228.013211,496.190194 C225.431878,500.056861 223.174544,501.776861 223.174544,499.950194" id="path492" transform="translate(235.195197, 487.195966) scale(-1, 1) rotate(-180.000000) translate(-235.195197, -487.195966) "></path>
            <path d="M568.706536,170.201746 C567.839869,136.21508 566.226536,93.5217477 565.693202,90.9484145 L565.159869,87.7217479 L566.773202,91.3750811 C567.946536,93.855081 568.813202,100.948414 569.453202,114.495081 C570.106536,125.148414 570.959869,143.321746 571.599869,154.721748 C572.253202,166.228413 572.466536,176.015079 572.146536,176.548412 C571.719869,177.081746 570.853202,177.521746 570.213202,177.521746 C569.346536,177.521746 568.813202,175.041746 568.706536,170.201746" id="path494" transform="translate(568.726515, 132.621747) scale(-1, 1) rotate(-180.000000) translate(-568.726515, -132.621747) "></path>
            <path d="M43.0438822,152.513419 C43.2585488,101.326754 43.5812155,92.9400871 45.0865488,94.5534203 C45.3012155,94.7667537 45.6238821,120.566753 45.8398821,151.966752 C46.2692154,204.673418 46.1612154,208.966751 44.4412155,209.300084 C42.8278822,209.620084 42.7198822,205.526751 43.0438822,152.513419" id="path496" transform="translate(44.474581, 151.844249) scale(-1, 1) rotate(-180.000000) translate(-44.474581, -151.844249) "></path>
            <path d="M74.982548,124.570622 C75.5198814,96.503956 77.4558813,95.3172894 78.4238813,122.423955 C78.746548,133.717288 78.854548,143.383955 78.5318813,143.930621 C78.1012146,144.570621 77.1332147,144.997288 76.1652147,144.997288 C74.6598814,144.997288 74.5518814,142.530622 74.982548,124.570622" id="path498" transform="translate(76.744629, 123.892851) scale(-1, 1) rotate(-180.000000) translate(-76.744629, -123.892851) "></path>
            <path d="M58.3145485,165.413781 C56.4865485,163.693782 57.9905485,107.027116 59.8198818,107.027116 C60.3572151,107.027116 60.8945484,120.360449 61.0025484,136.600449 C61.3252151,164.987115 61.0025484,168.213781 58.3145485,165.413781" id="path500" transform="translate(59.294847, 136.627764) scale(-1, 1) rotate(-180.000000) translate(-59.294847, -136.627764) "></path>
            <path d="M63.153215,218.969154 C60.5718817,217.889154 59.6038818,214.662488 61.4318817,212.835821 C63.905215,210.355821 67.4545482,212.515821 67.0252149,216.169154 C66.7025483,219.075821 65.5185483,219.929154 63.153215,218.969154" id="path502" transform="translate(63.775013, 215.558783) scale(-1, 1) rotate(-180.000000) translate(-63.775013, -215.558783) "></path>
            <path d="M46.4852154,235.414107 C45.0865488,234.120773 45.7318821,229.614107 47.3452154,229.06744 C52.075882,227.240774 56.3772152,231.54744 53.0438819,234.880773 C51.6465486,236.280773 47.6678821,236.600773 46.4852154,235.414107" id="path504" transform="translate(49.971132, 232.387925) scale(-1, 1) rotate(-180.000000) translate(-49.971132, -232.387925) "></path>
            <path d="M47.4518821,268.41906 C46.2692154,265.632393 48.8505487,263.89906 50.5705487,266.37906 C51.431882,267.45906 51.8612153,268.85906 51.5385486,269.285727 C50.5705487,270.89906 48.2052154,270.352393 47.4518821,268.41906" id="path506" transform="translate(49.398891, 267.710402) scale(-1, 1) rotate(-180.000000) translate(-49.398891, -267.710402) "></path>
            <path d="M570.213202,397.400408 C568.706536,395.893741 569.559869,392.880408 571.719869,392.227074 C574.506536,391.373741 577.519869,393.947074 576.666536,396.427074 C576.013202,398.147074 571.493202,398.787074 570.213202,397.400408" id="path508" transform="translate(573.133532, 395.107741) scale(-1, 1) rotate(-180.000000) translate(-573.133532, -395.107741) "></path>
            <path d="M36.0532157,747.981928 C36.0532157,730.995262 34.4398824,681.528597 32.6118824,643.355264 C31.2132158,613.675265 29.3852159,526.4486 29.4932159,494.941935 C29.7078825,434.181936 30.2452158,398.808604 30.8905492,398.15527 C32.3972158,396.648604 33.0425491,410.421937 32.9345491,440.741936 C32.8265491,458.168602 32.7185491,482.795268 32.7185491,495.475268 C32.6118824,529.461934 34.7625491,621.728598 35.9452157,638.515264 C37.666549,662.38193 38.7412156,761.755261 37.3438823,762.608594 C36.3758823,763.155261 36.0532157,759.381928 36.0532157,747.981928" id="path510" transform="translate(33.737191, 580.351834) scale(-1, 1) rotate(-180.000000) translate(-33.737191, -580.351834) "></path>
            <path d="M574.826536,420.337467 C573.213202,418.404134 574.079869,415.7108 576.559869,414.7508 C578.599869,413.9908 580.213202,416.044134 580.213202,419.5908 C580.213202,422.3908 576.986535,422.924133 574.826536,420.337467" id="path512" transform="translate(577.109943, 418.302937) scale(-1, 1) rotate(-180.000000) translate(-577.109943, -418.302937) "></path>
            <path d="M564.506536,432.392262 C563.759869,431.098929 566.119869,429.058929 567.519869,429.925596 C567.946536,430.245596 568.386536,431.218929 568.386536,432.072262 C568.386536,433.898929 565.586536,434.112262 564.506536,432.392262" id="path514" transform="translate(566.375214, 431.643667) scale(-1, 1) rotate(-180.000000) translate(-566.375214, -431.643667) "></path>
            <path d="M587.413202,479.55146 C587.946535,455.991461 588.173202,452.871461 589.786535,454.591461 C590.959868,455.884794 589.239869,500.19146 587.946535,501.484793 C587.306535,502.124793 587.093202,493.204793 587.413202,479.55146" id="path516" transform="translate(588.721828, 477.856599) scale(-1, 1) rotate(-180.000000) translate(-588.721828, -477.856599) "></path>
            <path d="M589.453202,778.329247 C589.559869,759.289248 590.213202,744.889248 591.399868,735.635915 C592.253202,727.995915 593.866535,715.635915 594.733202,708.209249 C595.693202,700.795916 596.559868,686.595916 596.879868,676.48925 C597.093202,666.48925 597.853202,652.92925 598.386535,646.36925 C599.026535,639.929251 600.319868,623.902584 601.293202,610.995918 C602.146535,597.982585 603.119868,587.009252 603.439868,586.475919 C603.759868,586.049252 604.399868,575.289252 604.946535,562.489252 C606.013201,537.862586 606.666535,531.849253 608.493201,531.849253 C609.133201,531.849253 609.346535,534.95592 608.813201,541.19592 C608.386535,546.47592 607.626535,559.369253 607.093201,570.022586 C606.559868,580.662585 604.946535,604.649251 603.333202,623.249251 C601.826535,641.862584 600.106535,667.76925 599.573202,680.782583 C599.026535,693.795916 598.066535,708.102582 597.413202,712.515915 C594.079868,735.422581 592.906535,748.969248 592.146535,775.74258 C591.719868,791.875913 590.853202,805.529246 590.319868,806.075913 C589.786535,806.609246 589.346535,795.969247 589.453202,778.329247" id="path518" transform="translate(599.276311, 668.972158) scale(-1, 1) rotate(-180.000000) translate(-599.276311, -668.972158) "></path>
            <path d="M55.0878819,750.664596 C54.2278819,749.691263 54.1198819,694.851264 54.9798819,691.397931 C56.7012152,685.064598 57.3465485,692.264598 57.3465485,718.717931 C57.4532152,745.71793 57.0238818,752.491263 55.0878819,750.664596" id="path532" transform="translate(55.873984, 720.093165) scale(-1, 1) rotate(-180.000000) translate(-55.873984, -720.093165) "></path>
            <path d="M74.3372147,745.105528 C73.4772148,739.838862 73.4772148,720.158862 74.3372147,715.852196 C75.950548,708.012196 76.918548,713.705529 76.918548,730.812195 C76.918548,748.118862 75.8438814,754.038862 74.3372147,745.105528" id="path534" transform="translate(75.305381, 730.813630) scale(-1, 1) rotate(-180.000000) translate(-75.305381, -730.813630) "></path>
            <path d="M88.1025477,739.42165 C89.2852144,731.794984 90.8985477,726.634984 92.0812143,726.634984 C92.7265476,726.634984 92.8345476,728.021651 92.5118809,730.18165 C92.1892143,732.008317 91.543881,735.768317 91.1145476,738.354984 C90.683881,741.034984 89.607881,743.408317 88.855881,743.62165 C87.6732144,744.048317 87.4572144,743.194983 88.1025477,739.42165" id="path536" transform="translate(90.216611, 735.178358) scale(-1, 1) rotate(-180.000000) translate(-90.216611, -735.178358) "></path>
            <path d="M404.26654,794.53036 C403.94654,793.023694 403.733206,779.263694 403.94654,763.877028 C404.26654,743.450362 404.70654,735.703695 405.773206,734.623695 C406.74654,733.663695 407.06654,739.570362 407.06654,764.637028 C407.06654,783.770361 406.639873,796.25036 405.999873,796.677027 C405.453206,796.997027 404.70654,796.037027 404.26654,794.53036" id="path538" transform="translate(405.463603, 765.632713) scale(-1, 1) rotate(-180.000000) translate(-405.463603, -765.632713) "></path>
            <path d="M587.839869,791.026976 C587.839869,784.573643 588.279869,771.24031 588.706535,761.453644 C589.133202,751.666977 589.133202,743.600311 588.706535,743.386977 C587.519869,742.853644 590.213202,736.613644 591.506535,737.040311 C592.146535,737.373644 592.466535,742.320311 592.253202,750.813644 C591.506535,785.013643 587.733202,819.320309 587.839869,791.026976" id="path540" transform="translate(590.078335, 769.261020) scale(-1, 1) rotate(-180.000000) translate(-590.078335, -769.261020) "></path>
            <path d="M521.813204,808.875201 C519.55987,806.608534 522.23987,739.728536 524.613203,739.728536 C525.146537,739.728536 525.253203,751.021869 524.826537,765.861869 C524.39987,780.155202 523.95987,795.648535 523.853203,800.155201 C523.746537,808.221868 523.213204,810.381868 521.813204,808.875201" id="path542" transform="translate(523.026710, 774.525133) scale(-1, 1) rotate(-180.000000) translate(-523.026710, -774.525133) "></path>
            <path d="M231.454544,784.706587 C230.917211,783.853254 232.099877,765.559921 233.497211,755.133255 C233.821211,752.453255 234.789211,749.226588 235.649211,748.146588 C237.046544,746.426588 237.154544,746.533255 236.617211,749.973255 C236.293211,752.013255 235.541211,760.399921 235.003877,768.679921 C234.143877,782.239921 233.067877,787.293254 231.454544,784.706587" id="path544" transform="translate(234.119451, 766.207493) scale(-1, 1) rotate(-180.000000) translate(-234.119451, -766.207493) "></path>
            <path d="M215.646545,766.074548 C215.646545,762.314548 216.614545,759.301215 217.689211,759.941215 C218.765211,760.594548 217.797211,769.194548 216.614545,769.194548 C216.075878,769.194548 215.646545,767.794548 215.646545,766.074548" id="path546" transform="translate(216.900885, 764.524806) scale(-1, 1) rotate(-180.000000) translate(-216.900885, -764.524806) "></path>
            <path d="M249.41321,787.328933 C248.559877,785.168933 249.839877,771.302267 251.239877,766.6756 C253.066544,761.088934 254.039877,762.595601 253.066544,769.368934 C252.639877,772.702267 252.319877,778.3956 252.426544,781.8356 C252.53321,786.0356 252.106544,788.408933 251.346544,788.728933 C250.599877,788.942267 249.73321,788.288933 249.41321,787.328933" id="path548" transform="translate(251.294498, 776.011999) scale(-1, 1) rotate(-180.000000) translate(-251.294498, -776.011999) "></path>
            <path d="M268.346543,783.580215 C266.519877,780.033548 267.159877,770.566882 269.306543,770.566882 C269.73321,770.566882 270.066543,772.180215 270.066543,774.113549 C270.066543,775.940215 270.386543,779.380215 270.81321,781.646882 C271.786543,785.940215 270.279876,787.126882 268.346543,783.580215" id="path550" transform="translate(269.197295, 778.117640) scale(-1, 1) rotate(-180.000000) translate(-269.197295, -778.117640) "></path>
            <path d="M420.399873,788.980229 C419.439873,786.606896 420.946539,773.06023 422.226539,771.873563 C422.773206,771.233563 423.199873,774.246896 423.199873,780.046896 C423.199873,788.753563 421.906539,792.953563 420.399873,788.980229" id="path552" transform="translate(421.647808, 781.137647) scale(-1, 1) rotate(-180.000000) translate(-421.647808, -781.137647) "></path>
            <path d="M389.86654,797.072851 C388.46654,794.486184 388.46654,776.846184 389.759874,775.992851 C390.399873,775.672851 390.933207,779.432851 391.26654,784.806184 C391.479873,790.072851 392.013207,795.352851 392.54654,796.752851 C393.519873,799.752851 391.479873,799.966184 389.86654,797.072851" id="path554" transform="translate(390.801058, 787.550624) scale(-1, 1) rotate(-180.000000) translate(-390.801058, -787.550624) "></path>
            <path d="M368.026541,798.558893 C366.746541,796.732226 366.746541,795.332226 367.813207,790.06556 C369.106541,783.50556 370.079874,781.358893 371.466541,781.358893 C371.906541,781.358893 371.693207,784.90556 370.933207,789.212226 C370.186541,793.82556 369.973207,797.385559 370.613207,798.025559 C371.146541,798.558893 371.586541,799.425559 371.586541,799.852226 C371.586541,801.465559 369.533207,800.718893 368.026541,798.558893" id="path556" transform="translate(369.365545, 791.040312) scale(-1, 1) rotate(-180.000000) translate(-369.365545, -791.040312) "></path>
            <path d="M539.773203,812.778296 C538.47987,809.551629 539.986536,791.378296 541.813203,787.084963 C544.186536,781.698297 545.146536,782.564963 543.746536,788.698296 C543.106536,791.27163 542.573203,798.164963 542.573203,803.964963 C542.573203,810.418296 542.133203,814.391629 541.493203,814.391629 C540.853203,814.391629 540.093203,813.644962 539.773203,812.778296" id="path558" transform="translate(541.842638, 798.956680) scale(-1, 1) rotate(-180.000000) translate(-541.842638, -798.956680) "></path>
            <path d="M504.279871,813.005992 C502.666537,806.659325 506.866537,786.765992 509.879871,786.765992 C511.066537,786.765992 511.173204,787.192659 510.413204,788.805992 C509.013204,791.272659 506.759871,809.885992 507.399871,813.219325 C508.053204,816.765992 505.146537,816.552658 504.279871,813.005992" id="path560" transform="translate(507.409458, 801.270528) scale(-1, 1) rotate(-180.000000) translate(-507.409458, -801.270528) "></path>
            <path d="M556.226536,798.569891 C555.039869,797.503224 555.373203,788.783224 556.546536,788.036558 C557.199869,787.609891 557.626536,789.649891 557.626536,793.303224 C557.626536,799.436557 557.519869,799.863224 556.226536,798.569891" id="path562" transform="translate(556.555667, 793.572477) scale(-1, 1) rotate(-180.000000) translate(-556.555667, -793.572477) "></path>
        </g>
        <g id="CHROME-BANDIT" transform="translate(79.636719, 628.465332)" fill="#FF8F5F" fill-rule="nonzero">
            <path d="M36.4379883,27.0996094 L21.0205078,27.0996094 L21.0205078,16.7724609 C21.0205078,13.7695312 20.8557129,11.895752 20.526123,11.151123 C20.1965332,10.4064941 19.4702148,10.0341797 18.347168,10.0341797 C17.0776367,10.0341797 16.2719727,10.4858398 15.9301758,11.3891602 C15.5883789,12.2924805 15.4174805,14.2456055 15.4174805,17.2485352 L15.4174805,44.7875977 C15.4174805,47.668457 15.5883789,49.5483398 15.9301758,50.4272461 C16.2719727,51.3061523 17.0410156,51.7456055 18.2373047,51.7456055 C19.3847656,51.7456055 20.135498,51.3061523 20.489502,50.4272461 C20.8435059,49.5483398 21.0205078,47.4853516 21.0205078,44.2382812 L21.0205078,36.8041992 L36.4379883,36.8041992 L36.4379883,39.1113281 C36.4379883,45.2392578 36.0046387,49.5849609 35.1379395,52.1484375 C34.2712402,54.7119141 32.3547363,56.9580078 29.3884277,58.8867188 C26.4221191,60.8154297 22.7661133,61.7797852 18.4204102,61.7797852 C13.9038086,61.7797852 10.1806641,60.9619141 7.25097656,59.3261719 C4.32128906,57.6904297 2.38037109,55.4260254 1.42822266,52.532959 C0.476074219,49.6398926 0,45.2880859 0,39.4775391 L0,22.1557617 C0,17.8833008 0.146484375,14.6789551 0.439453125,12.5427246 C0.732421875,10.4064941 1.60522461,8.34960938 3.05786133,6.37207031 C4.51049805,4.39453125 6.5246582,2.83813477 9.1003418,1.70288086 C11.6760254,0.567626953 14.6362305,0 17.980957,0 C22.5219727,0 26.2695312,0.87890625 29.2236328,2.63671875 C32.1777344,4.39453125 34.1186523,6.58569336 35.0463867,9.21020508 C35.9741211,11.8347168 36.4379883,15.9179687 36.4379883,21.4599609 L36.4379883,27.0996094 Z" id="Path"></path>
            <polygon id="Path" points="77.4169922 1.24511719 77.4169922 60.534668 61.9995117 60.534668 61.9995117 35.6323242 57.3852539 35.6323242 57.3852539 60.534668 41.9677734 60.534668 41.9677734 1.24511719 57.3852539 1.24511719 57.3852539 22.4487305 61.9995117 22.4487305 61.9995117 1.24511719"></polygon>
            <path d="M83.605957,1.24511719 L94.519043,1.24511719 C101.794434,1.24511719 106.719971,1.52587891 109.295654,2.08740234 C111.871338,2.64892578 113.970947,4.08325195 115.594482,6.39038086 C117.218018,8.69750977 118.029785,12.3779297 118.029785,17.4316406 C118.029785,22.0458984 117.456055,25.1464844 116.308594,26.7333984 C115.161133,28.3203125 112.902832,29.2724609 109.533691,29.5898438 C112.585449,30.3466797 114.63623,31.3598633 115.686035,32.6293945 C116.73584,33.8989258 117.388916,35.0646973 117.645264,36.126709 C117.901611,37.1887207 118.029785,40.1123047 118.029785,44.8974609 L118.029785,60.534668 L103.710938,60.534668 L103.710938,40.8325195 C103.710938,37.6586914 103.460693,35.6933594 102.960205,34.9365234 C102.459717,34.1796875 101.147461,33.8012695 99.0234375,33.8012695 L99.0234375,60.534668 L83.605957,60.534668 L83.605957,1.24511719 Z M99.0234375,11.3891602 L99.0234375,24.5727539 C100.756836,24.5727539 101.971436,24.3347168 102.667236,23.8586426 C103.363037,23.3825684 103.710938,21.8383789 103.710938,19.2260742 L103.710938,15.9667969 C103.710938,14.0869141 103.375244,12.8540039 102.703857,12.2680664 C102.032471,11.6821289 100.805664,11.3891602 99.0234375,11.3891602 Z" id="Shape"></path>
            <path d="M159.228516,35.9619141 C159.228516,41.9189453 159.088135,46.1364746 158.807373,48.614502 C158.526611,51.0925293 157.647705,53.3569336 156.170654,55.4077148 C154.693604,57.4584961 152.697754,59.0332031 150.183105,60.1318359 C147.668457,61.2304688 144.73877,61.7797852 141.394043,61.7797852 C138.220215,61.7797852 135.369873,61.2609863 132.843018,60.2233887 C130.316162,59.185791 128.283691,57.6293945 126.745605,55.5541992 C125.20752,53.4790039 124.291992,51.2207031 123.999023,48.7792969 C123.706055,46.3378906 123.55957,42.0654297 123.55957,35.9619141 L123.55957,25.8178711 C123.55957,19.8608398 123.699951,15.6433105 123.980713,13.1652832 C124.261475,10.6872559 125.140381,8.42285156 126.617432,6.37207031 C128.094482,4.32128906 130.090332,2.74658203 132.60498,1.64794922 C135.119629,0.549316406 138.049316,0 141.394043,0 C144.567871,0 147.418213,0.518798828 149.945068,1.55639648 C152.471924,2.59399414 154.504395,4.15039062 156.04248,6.22558594 C157.580566,8.30078125 158.496094,10.559082 158.789062,13.0004883 C159.082031,15.4418945 159.228516,19.7143555 159.228516,25.8178711 L159.228516,35.9619141 Z M143.811035,16.4794922 C143.811035,13.7207031 143.658447,11.9567871 143.353271,11.1877441 C143.048096,10.4187012 142.419434,10.0341797 141.467285,10.0341797 C140.661621,10.0341797 140.045166,10.345459 139.61792,10.9680176 C139.190674,11.5905762 138.977051,13.4277344 138.977051,16.4794922 L138.977051,44.1650391 C138.977051,47.6074219 139.117432,49.7314453 139.398193,50.5371094 C139.678955,51.3427734 140.332031,51.7456055 141.357422,51.7456055 C142.407227,51.7456055 143.078613,51.2817383 143.371582,50.3540039 C143.664551,49.4262695 143.811035,47.2167969 143.811035,43.7255859 L143.811035,16.4794922 Z" id="Shape"></path>
            <path d="M212.548828,1.24511719 L212.548828,60.534668 L199.072266,60.534668 L199.072266,20.5078125 L193.688965,60.534668 L184.130859,60.534668 L178.45459,21.4233398 L178.45459,60.534668 L164.978027,60.534668 L164.978027,1.24511719 L184.936523,1.24511719 C185.522461,4.80957031 186.14502,9.00878906 186.804199,13.8427734 L188.928223,28.9306641 L192.443848,1.24511719 L212.548828,1.24511719 Z" id="Path"></path>
            <polygon id="Path" points="218.737793 1.24511719 244.445801 1.24511719 244.445801 13.1103516 234.155273 13.1103516 234.155273 24.3530273 243.786621 24.3530273 243.786621 35.6323242 234.155273 35.6323242 234.155273 48.6694336 245.471191 48.6694336 245.471191 60.534668 218.737793 60.534668"></polygon>
            <path d="M263.122559,1.24511719 L278.503418,1.24511719 C283.361816,1.24511719 287.042236,1.62353516 289.544678,2.38037109 C292.047119,3.13720703 294.067383,4.66918945 295.605469,6.97631836 C297.143555,9.28344727 297.912598,13.0004883 297.912598,18.1274414 C297.912598,21.5942383 297.369385,24.0112305 296.282959,25.378418 C295.196533,26.7456055 293.054199,27.7954102 289.855957,28.527832 C293.42041,29.3334961 295.837402,30.670166 297.106934,32.5378418 C298.376465,34.4055176 299.01123,37.2680664 299.01123,41.1254883 L299.01123,46.6186523 C299.01123,50.6225586 298.553467,53.5888672 297.637939,55.5175781 C296.722412,57.4462891 295.263672,58.7646484 293.261719,59.4726562 C291.259766,60.1806641 287.158203,60.534668 280.957031,60.534668 L263.122559,60.534668 L263.122559,1.24511719 Z M278.540039,11.3891602 L278.540039,24.5727539 C279.199219,24.5483398 279.711914,24.5361328 280.078125,24.5361328 C281.591797,24.5361328 282.556152,24.1638184 282.971191,23.4191895 C283.38623,22.6745605 283.59375,20.5444336 283.59375,17.0288086 C283.59375,15.1733398 283.422852,13.873291 283.081055,13.1286621 C282.739258,12.3840332 282.293701,11.9140625 281.744385,11.71875 C281.195068,11.5234375 280.126953,11.4135742 278.540039,11.3891602 Z M278.540039,33.8012695 L278.540039,50.390625 C280.712891,50.3173828 282.098389,49.9755859 282.696533,49.3652344 C283.294678,48.7548828 283.59375,47.253418 283.59375,44.8608398 L283.59375,39.3310547 C283.59375,36.7919922 283.325195,35.2539062 282.788086,34.7167969 C282.250977,34.1796875 280.834961,33.8745117 278.540039,33.8012695 Z" id="Shape"></path>
            <path d="M331.164551,1.24511719 L339.990234,60.534668 L324.206543,60.534668 L323.4375,49.8779297 L317.907715,49.8779297 L316.992188,60.534668 L301.025391,60.534668 L308.862305,1.24511719 L331.164551,1.24511719 Z M322.998047,39.3676758 C322.216797,32.6538086 321.435547,24.3652344 320.654297,14.5019531 C319.091797,25.8300781 318.115234,34.1186523 317.724609,39.3676758 L322.998047,39.3676758 Z" id="Shape"></path>
            <polygon id="Path" points="377.050781 1.24511719 377.050781 60.534668 363.537598 60.534668 355.517578 33.581543 355.517578 60.534668 342.626953 60.534668 342.626953 1.24511719 355.517578 1.24511719 364.160156 27.9418945 364.160156 1.24511719"></polygon>
            <path d="M383.239746,1.24511719 L394.775391,1.24511719 C402.22168,1.24511719 407.25708,1.58691406 409.881592,2.27050781 C412.506104,2.95410156 414.501953,4.07714844 415.869141,5.63964844 C417.236328,7.20214844 418.09082,8.94165039 418.432617,10.8581543 C418.774414,12.7746582 418.945312,16.5405273 418.945312,22.1557617 L418.945312,42.9199219 C418.945312,48.2421875 418.695068,51.8005371 418.19458,53.5949707 C417.694092,55.3894043 416.821289,56.7932129 415.576172,57.8063965 C414.331055,58.8195801 412.792969,59.5275879 410.961914,59.9304199 C409.130859,60.333252 406.37207,60.534668 402.685547,60.534668 L383.239746,60.534668 L383.239746,1.24511719 Z M398.657227,11.3891602 L398.657227,50.390625 C400.878906,50.390625 402.246094,49.9450684 402.758789,49.0539551 C403.271484,48.1628418 403.527832,45.7397461 403.527832,41.784668 L403.527832,18.75 C403.527832,16.0644531 403.442383,14.3432617 403.271484,13.5864258 C403.100586,12.8295898 402.709961,12.2741699 402.099609,11.920166 C401.489258,11.5661621 400.341797,11.3891602 398.657227,11.3891602 Z" id="Shape"></path>
            <polygon id="Path" points="440.112305 1.24511719 440.112305 60.534668 424.694824 60.534668 424.694824 1.24511719"></polygon>
            <polygon id="Path" points="477.355957 1.24511719 477.355957 13.1103516 468.200684 13.1103516 468.200684 60.534668 452.783203 60.534668 452.783203 13.1103516 443.664551 13.1103516 443.664551 1.24511719"></polygon>
        </g>
    </g>
</svg>